SplineFontDB: 3.2
FontName: Sahel
FullName: Sahel
FamilyName: Sahel
Weight: Regular
Copyright: Copyright (c) 2016 by Saber Rastikerdar. All Rights Reserved.\nBased on DejaVu font.\nNon-Arabic(Latin) glyphs and data are imported from Open Sans font under the Apache License, Version 2.0.
Version: 3.4.0
ItalicAngle: 0
UnderlinePosition: -500
UnderlineWidth: 100
Ascent: 1638
Descent: 410
InvalidEm: 0
LayerCount: 2
Layer: 0 0 "Back" 1
Layer: 1 0 "Fore" 0
PreferredKerning: 4
XUID: [1021 502 1027637223 4927894]
UniqueID: 4046035
UseUniqueID: 1
FSType: 0
OS2Version: 1
OS2_WeightWidthSlopeOnly: 0
OS2_UseTypoMetrics: 1
CreationTime: 1431850356
ModificationTime: 1582306695
PfmFamily: 33
TTFWeight: 400
TTFWidth: 5
LineGap: 0
VLineGap: 0
Panose: 2 11 6 3 3 8 4 2 2 4
OS2TypoAscent: 2200
OS2TypoAOffset: 0
OS2TypoDescent: -1000
OS2TypoDOffset: 0
OS2TypoLinegap: 0
OS2WinAscent: 2200
OS2WinAOffset: 0
OS2WinDescent: 1000
OS2WinDOffset: 0
HheadAscent: 2200
HheadAOffset: 0
HheadDescent: -1000
HheadDOffset: 0
OS2SubXSize: 1331
OS2SubYSize: 1433
OS2SubXOff: 0
OS2SubYOff: 286
OS2SupXSize: 1331
OS2SupYSize: 1433
OS2SupXOff: 0
OS2SupYOff: 983
OS2StrikeYSize: 102
OS2StrikeYPos: 530
OS2CapHeight: 1638
OS2XHeight: 1082
OS2Vendor: '    '
OS2CodePages: 00000041.20080000
OS2UnicodeRanges: 80002003.80000000.00000008.00000000
Lookup: 1 9 0 "Single Substitution 1" { "Single Substitution 1 subtable"  } []
Lookup: 1 9 0 "'fina' Terminal Forms in Arabic lookup 9" { "'fina' Terminal Forms in Arabic lookup 9 subtable"  } ['fina' ('DFLT' <'dflt' > 'arab' <'FAR ' 'KUR ' 'URD ' 'dflt' > ) ]
Lookup: 1 9 0 "'medi' Medial Forms in Arabic lookup 11" { "'medi' Medial Forms in Arabic lookup 11 subtable"  } ['medi' ('DFLT' <'dflt' > 'arab' <'FAR ' 'KUR ' 'URD ' 'dflt' > ) ]
Lookup: 1 9 0 "'init' Initial Forms in Arabic lookup 13" { "'init' Initial Forms in Arabic lookup 13 subtable"  } ['init' ('DFLT' <'dflt' > 'arab' <'FAR ' 'KUR ' 'URD ' 'dflt' > ) ]

StartChar: exclam
Encoding: 33 33 1
GlifName: exclam
Width: 561
GlyphClass: 2
Flags: HW
LayerCount: 2
Fore
SplineSet
330 479 m 2
 329 464 319 457 290 457 c 2
 270 457 l 2
 243 457 231 464 230 480 c 2
 168 1258 l 2
 168 1267 168 1276 168 1285 c 0
 168 1365 196 1405 255 1405 c 2
 289 1405 l 2
 355 1404 384 1377 384 1288 c 0
 384 1279 384 1269 383 1259 c 2
 330 479 l 2
281 1 m 4
 210 1 150 61 150 132 c 0
 150 203 210 263 281 263 c 0
 353 263 411 204 411 132 c 0
 411 61 352 1 281 1 c 4
EndSplineSet
EndChar

StartChar: period
Encoding: 46 46 2
GlifName: period
Width: 562
GlyphClass: 2
Flags: HW
LayerCount: 2
Fore
SplineSet
281 1 m 0
 210 1 150 61 150 132 c 0
 150 203 210 263 281 263 c 0
 353 263 412 204 412 132 c 0
 412 61 352 1 281 1 c 0
EndSplineSet
EndChar

StartChar: colon
Encoding: 58 58 3
GlifName: colon
Width: 561
GlyphClass: 2
Flags: HW
LayerCount: 2
Fore
SplineSet
281 591 m 4
 210 591 150 651 150 722 c 4
 150 793 210 853 281 853 c 4
 353 853 411 794 411 722 c 4
 411 651 352 591 281 591 c 4
281 1 m 0
 210 1 150 61 150 132 c 0
 150 203 210 263 281 263 c 0
 353 263 411 204 411 132 c 0
 411 61 352 1 281 1 c 0
EndSplineSet
EndChar

StartChar: uni060C
Encoding: 1548 1548 5
GlifName: afii57388
Width: 562
GlyphClass: 2
Flags: HW
LayerCount: 2
Fore
SplineSet
282 1 m 0
 196 1 150 73 150 145 c 0
 150 346 267 490 373 532 c 4
 420.993164062 551.016601562 460 532 415 498 c 4
 337 439 293 346 292 263 c 1
 390 257 412 182 412 135 c 0
 412 68 365 1 282 1 c 0
EndSplineSet
EndChar

StartChar: uni0615
Encoding: 1557 1557 6
GlifName: uni0615
Width: 0
GlyphClass: 4
Flags: HW
AnchorPoint: "Anchor-10" 702 1946 mark 0
AnchorPoint: "Anchor-9" 702 1946 mark 0
AnchorPoint: "Anchor-1" 554 2839 basemark 0
AnchorPoint: "Anchor-1" 702 1946 mark 0
LayerCount: 2
Fore
SplineSet
998 2475 m 4
 1109 2475 1170 2406 1170 2284 c 4
 1170 2080 967 2018 727 2018 c 6
 420 2018 l 5
 367 2118 l 5
 504 2118 l 5
 504 2789 l 5
 606 2789 l 5
 606 2169 l 5
 747 2373 878 2475 998 2475 c 4
1070 2274 m 4
 1070 2330 1045 2358 996 2358 c 4
 915 2358 808 2278 676 2118 c 5
 778 2118 l 6
 931 2118 1070 2150 1070 2274 c 4
EndSplineSet
EndChar

StartChar: uni061B
Encoding: 1563 1563 7
GlifName: uni061B_
Width: 562
GlyphClass: 2
Flags: HW
LayerCount: 2
Fore
SplineSet
282 455 m 0
 196 455 150 527 150 599 c 0
 150 800 267 944 373 986 c 4
 420.993164062 1005.01660156 460 986 415 952 c 4
 337 893 293 800 292 717 c 1
 390 711 412 636 412 589 c 0
 412 522 365 455 282 455 c 0
282.974609375 0.900390625 m 0
 211.724609375 0.900390625 151.875 60.75 151.875 132 c 0
 151.875 203.25 211.724609375 263.099609375 282.974609375 263.099609375 c 0
 355.174804688 263.099609375 413.125 204.200195312 413.125 132 c 0
 413.125 60.75 354.224609375 0.900390625 282.974609375 0.900390625 c 0
EndSplineSet
EndChar

StartChar: uni061F
Encoding: 1567 1567 8
GlifName: uni061F_
Width: 914
GlyphClass: 2
Flags: HW
LayerCount: 2
Fore
SplineSet
530.974609375 0.900390625 m 0
 459.724609375 0.900390625 399.875 60.75 399.875 132 c 0
 399.875 203.25 459.724609375 263.099609375 530.974609375 263.099609375 c 0
 603.174804688 263.099609375 661.125 204.200195312 661.125 132 c 0
 661.125 60.75 602.224609375 0.900390625 530.974609375 0.900390625 c 0
478 1219 m 0
 364 1219 276 1164 276 1046 c 0
 276 973 307 945 414 846 c 2
 456 807 l 2
 544 724 588 619 588 530 c 2
 588 487 l 2
 588 467 578 456 560 456 c 2
 500 456 l 2
 482 456 474 465 474 483 c 2
 474 524 l 2
 474 576 427 657 333 729 c 2
 256 788 l 2
 152 867 101 953 101 1059 c 0
 101 1273 253 1406 466 1406 c 0
 658 1406 809 1271 809 1055 c 0
 809 1037 809 1017 807 1000 c 1
 729 999 l 1
 702 1145 618 1219 478 1219 c 0
EndSplineSet
EndChar

StartChar: uni0621
Encoding: 1569 1569 9
GlifName: uni0621
Width: 835
GlyphClass: 2
Flags: HW
AnchorPoint: "Anchor-7" 439.249 -55.3096 basechar 0
AnchorPoint: "Anchor-10" 417.528 928.01 basechar 0
LayerCount: 2
Fore
SplineSet
732.3671875 290.41015625 m 2
 717.487304688 169.509765625 l 1
 524.9765625 142.540039062 318.516601562 84.8798828125 100.896484375 -0.6796875 c 1
 101.827148438 160.209960938 l 1
 258.06640625 215.080078125 l 1
 196.686523438 268.08984375 165.997070312 331.330078125 165.997070312 404.799804688 c 0
 165.997070312 561.969726562 281.31640625 698.6796875 453.3671875 698.6796875 c 0
 539.856445312 698.6796875 614.256835938 669.849609375 674.70703125 612.190429688 c 1
 637.506835938 493.150390625 l 1
 564.037109375 518.259765625 506.376953125 531.280273438 464.526367188 531.280273438 c 0
 357.577148438 531.280273438 296.197265625 432.700195312 296.197265625 407.58984375 c 0
 296.197265625 374.110351562 422.676757812 278.3203125 459.876953125 278.3203125 c 0
 489.63671875 278.3203125 541.716796875 290.41015625 587.287109375 302.5 c 2
 681.216796875 326.6796875 l 2
 732.3671875 339.700195312 737.947265625 335.98046875 732.3671875 290.41015625 c 2
EndSplineSet
EndChar

StartChar: uni0627
Encoding: 1575 1575 15
GlifName: uni0627
Width: 454
GlyphClass: 2
Flags: HW
AnchorPoint: "Anchor-10" 198 1490 basechar 0
AnchorPoint: "Anchor-7" 205 -224 basechar 0
LayerCount: 2
Fore
SplineSet
111 1309 m 1
 256 1396 l 2
 273 1406 282 1397 284 1368 c 0
 299 1131 307 913 307 712 c 0
 307 288 303 90 297 77 c 0
 273 25 229 -2 167 -3 c 1
 161 681 142 1105 111 1309 c 1
EndSplineSet
Substitution2: "'fina' Terminal Forms in Arabic lookup 9 subtable" uniFE8E
EndChar

StartChar: uni062D
Encoding: 1581 1581 21
GlifName: uni062D_
Width: 1296
GlyphClass: 2
Flags: HW
AnchorPoint: "Anchor-10" 660 1081 basechar 0
AnchorPoint: "Anchor-7" 701 -822 basechar 0
LayerCount: 2
Fore
SplineSet
786 -485 m 0
 903 -485 1029.40923523 -478.860117657 1165 -458 c 0
 1178 -456 1183 -470 1179 -479 c 2
 1136 -575 l 2
 1118.98264799 -612.992227745 1109 -634 1067 -640 c 0
 998.114878239 -649.84073168 911 -655 808 -655 c 0
 409 -655 123 -516 123 -164 c 0
 123 208 422 484 775 560 c 1
 652 591 454 628 389 628 c 0
 318 628 250 588 185 509 c 1
 99 549 l 1
 161 699 239 815 385 815 c 0
 464 815 559 786 673 751 c 0
 813 708 984 657 1203 636 c 0
 1215 635 1218 629 1213 616 c 2
 1144 453 l 1
 726 441 270 243 270 -134 c 0
 270 -368 442 -485 786 -485 c 0
EndSplineSet
Substitution2: "'fina' Terminal Forms in Arabic lookup 9 subtable" uniFEA2
Substitution2: "'medi' Medial Forms in Arabic lookup 11 subtable" uniFEA4
Substitution2: "'init' Initial Forms in Arabic lookup 13 subtable" uniFEA3
EndChar

StartChar: uni062F
Encoding: 1583 1583 23
GlifName: uni062F_
Width: 1020
GlyphClass: 2
Flags: HW
AnchorPoint: "Anchor-10" 429 1206 basechar 0
AnchorPoint: "Anchor-7" 401 -227 basechar 0
LayerCount: 2
Fore
SplineSet
231 326 m 1
 231 314 232 302 233 292 c 0
 244 204 305 180 418 180 c 0
 655 180 774 226 774 318 c 0
 774 445 570 634 354 778 c 1
 418 949 l 2
 425 967 443 965 471 943 c 0
 768 711 916 510 916 341 c 0
 916 113 691 0 419 0 c 0
 210 0 106 76 106 228 c 0
 106 261 111 297 120 337 c 1
 231 326 l 1
EndSplineSet
PairPos2: "'kern' Horizontal Kerning lookup 0 subtable 4" uniFB90 dx=-120 dy=0 dh=-120 dv=0 dx=0 dy=0 dh=0 dv=0
PairPos2: "'kern' Horizontal Kerning lookup 0 subtable 4" uni06A9 dx=-120 dy=0 dh=-120 dv=0 dx=0 dy=0 dh=0 dv=0
PairPos2: "'kern' Horizontal Kerning lookup 0 subtable 4" uniFB94 dx=-120 dy=0 dh=-120 dv=0 dx=0 dy=0 dh=0 dv=0
PairPos2: "'kern' Horizontal Kerning lookup 0 subtable 4" uni06AF dx=-120 dy=0 dh=-120 dv=0 dx=0 dy=0 dh=0 dv=0
Substitution2: "'fina' Terminal Forms in Arabic lookup 9 subtable" uniFEAA
EndChar

StartChar: uni0631
Encoding: 1585 1585 25
GlifName: uni0631
Width: 762
GlyphClass: 2
Flags: HW
AnchorPoint: "Anchor-7" 316 -678 basechar 0
AnchorPoint: "Anchor-10" 455 855 basechar 0
LayerCount: 2
Fore
SplineSet
528 529 m 17
 623 389 667 256 667 116 c 0
 667 -378 180 -537 107 -537 c 0
 91 -537 73 -526 58 -508 c 2
 19 -459 l 2
 3 -437 -14 -409 16 -401 c 0
 311 -320 517 -156 517 71 c 0
 517 162 479 261 402 370 c 1
 528 529 l 17
EndSplineSet
PairPos2: "'kern' Horizontal Kerning lookup 0 subtable 3" uni06C0 dx=-128 dy=0 dh=-128 dv=0 dx=0 dy=0 dh=0 dv=0
PairPos2: "'kern' Horizontal Kerning lookup 0 subtable 3" uni0621 dx=-128 dy=0 dh=-128 dv=0 dx=0 dy=0 dh=0 dv=0
PairPos2: "'kern' Horizontal Kerning lookup 0 subtable 2" uni0648 dx=-43 dy=0 dh=-43 dv=0 dx=0 dy=0 dh=0 dv=0
PairPos2: "'kern' Horizontal Kerning lookup 0 subtable 0" uniFB58 dx=20 dy=0 dh=20 dv=0 dx=0 dy=0 dh=0 dv=0
PairPos2: "'kern' Horizontal Kerning lookup 0 subtable 0" uni0632 dx=-43 dy=0 dh=-43 dv=0 dx=0 dy=0 dh=0 dv=0
PairPos2: "'kern' Horizontal Kerning lookup 0 subtable 0" uni0631 dx=-43 dy=0 dh=-43 dv=0 dx=0 dy=0 dh=0 dv=0
PairPos2: "'kern' Horizontal Kerning lookup 0 subtable 0" uni06CC dx=-43 dy=0 dh=-43 dv=0 dx=0 dy=0 dh=0 dv=0
PairPos2: "'kern' Horizontal Kerning lookup 0 subtable 0" uniFEEB dx=-128 dy=0 dh=-128 dv=0 dx=0 dy=0 dh=0 dv=0
PairPos2: "'kern' Horizontal Kerning lookup 0 subtable 0" uniFB7C dx=-115 dy=0 dh=-115 dv=0 dx=0 dy=0 dh=0 dv=0
PairPos2: "'kern' Horizontal Kerning lookup 0 subtable 0" uniFEDF dx=-128 dy=0 dh=-128 dv=0 dx=0 dy=0 dh=0 dv=0
PairPos2: "'kern' Horizontal Kerning lookup 0 subtable 0" uniFB90 dx=-213 dy=0 dh=-213 dv=0 dx=0 dy=0 dh=0 dv=0
PairPos2: "'kern' Horizontal Kerning lookup 0 subtable 0" uni06A9 dx=-213 dy=0 dh=-213 dv=0 dx=0 dy=0 dh=0 dv=0
PairPos2: "'kern' Horizontal Kerning lookup 0 subtable 0" uni0649 dx=-43 dy=0 dh=-43 dv=0 dx=0 dy=0 dh=0 dv=0
PairPos2: "'kern' Horizontal Kerning lookup 0 subtable 0" uni0647 dx=-128 dy=0 dh=-128 dv=0 dx=0 dy=0 dh=0 dv=0
PairPos2: "'kern' Horizontal Kerning lookup 0 subtable 0" uniFEE7 dx=-128 dy=0 dh=-128 dv=0 dx=0 dy=0 dh=0 dv=0
PairPos2: "'kern' Horizontal Kerning lookup 0 subtable 0" uniFEE3 dx=-128 dy=0 dh=-128 dv=0 dx=0 dy=0 dh=0 dv=0
PairPos2: "'kern' Horizontal Kerning lookup 0 subtable 0" uni0645 dx=-128 dy=0 dh=-128 dv=0 dx=0 dy=0 dh=0 dv=0
PairPos2: "'kern' Horizontal Kerning lookup 0 subtable 0" uni0644 dx=-43 dy=0 dh=-43 dv=0 dx=0 dy=0 dh=0 dv=0
PairPos2: "'kern' Horizontal Kerning lookup 0 subtable 0" uniFEDB dx=-213 dy=0 dh=-213 dv=0 dx=0 dy=0 dh=0 dv=0
PairPos2: "'kern' Horizontal Kerning lookup 0 subtable 0" uniFED7 dx=-128 dy=0 dh=-128 dv=0 dx=0 dy=0 dh=0 dv=0
PairPos2: "'kern' Horizontal Kerning lookup 0 subtable 0" uni0642 dx=-43 dy=0 dh=-43 dv=0 dx=0 dy=0 dh=0 dv=0
PairPos2: "'kern' Horizontal Kerning lookup 0 subtable 0" uniFED3 dx=-128 dy=0 dh=-128 dv=0 dx=0 dy=0 dh=0 dv=0
PairPos2: "'kern' Horizontal Kerning lookup 0 subtable 0" uni0641 dx=-128 dy=0 dh=-128 dv=0 dx=0 dy=0 dh=0 dv=0
PairPos2: "'kern' Horizontal Kerning lookup 0 subtable 0" uniFECF dx=-128 dy=0 dh=-128 dv=0 dx=0 dy=0 dh=0 dv=0
PairPos2: "'kern' Horizontal Kerning lookup 0 subtable 0" uniFECB dx=-128 dy=0 dh=-128 dv=0 dx=0 dy=0 dh=0 dv=0
PairPos2: "'kern' Horizontal Kerning lookup 0 subtable 0" uniFEC7 dx=-128 dy=0 dh=-128 dv=0 dx=0 dy=0 dh=0 dv=0
PairPos2: "'kern' Horizontal Kerning lookup 0 subtable 0" uni0638 dx=-128 dy=0 dh=-128 dv=0 dx=0 dy=0 dh=0 dv=0
PairPos2: "'kern' Horizontal Kerning lookup 0 subtable 0" uniFEC3 dx=-128 dy=0 dh=-128 dv=0 dx=0 dy=0 dh=0 dv=0
PairPos2: "'kern' Horizontal Kerning lookup 0 subtable 0" uni0637 dx=-128 dy=0 dh=-128 dv=0 dx=0 dy=0 dh=0 dv=0
PairPos2: "'kern' Horizontal Kerning lookup 0 subtable 0" uniFEBF dx=-128 dy=0 dh=-128 dv=0 dx=0 dy=0 dh=0 dv=0
PairPos2: "'kern' Horizontal Kerning lookup 0 subtable 0" uni0636 dx=-128 dy=0 dh=-128 dv=0 dx=0 dy=0 dh=0 dv=0
PairPos2: "'kern' Horizontal Kerning lookup 0 subtable 0" uniFEBB dx=-128 dy=0 dh=-128 dv=0 dx=0 dy=0 dh=0 dv=0
PairPos2: "'kern' Horizontal Kerning lookup 0 subtable 0" uni0635 dx=-128 dy=0 dh=-128 dv=0 dx=0 dy=0 dh=0 dv=0
PairPos2: "'kern' Horizontal Kerning lookup 0 subtable 0" uniFEB7 dx=-128 dy=0 dh=-128 dv=0 dx=0 dy=0 dh=0 dv=0
PairPos2: "'kern' Horizontal Kerning lookup 0 subtable 0" uni0634 dx=-128 dy=0 dh=-128 dv=0 dx=0 dy=0 dh=0 dv=0
PairPos2: "'kern' Horizontal Kerning lookup 0 subtable 0" uniFEB3 dx=-128 dy=0 dh=-128 dv=0 dx=0 dy=0 dh=0 dv=0
PairPos2: "'kern' Horizontal Kerning lookup 0 subtable 0" uni0633 dx=-128 dy=0 dh=-128 dv=0 dx=0 dy=0 dh=0 dv=0
PairPos2: "'kern' Horizontal Kerning lookup 0 subtable 0" uni0630 dx=-128 dy=0 dh=-128 dv=0 dx=0 dy=0 dh=0 dv=0
PairPos2: "'kern' Horizontal Kerning lookup 0 subtable 0" uni062F dx=-128 dy=0 dh=-128 dv=0 dx=0 dy=0 dh=0 dv=0
PairPos2: "'kern' Horizontal Kerning lookup 0 subtable 0" uniFEA7 dx=-128 dy=0 dh=-128 dv=0 dx=0 dy=0 dh=0 dv=0
PairPos2: "'kern' Horizontal Kerning lookup 0 subtable 0" uniFEA3 dx=-128 dy=0 dh=-128 dv=0 dx=0 dy=0 dh=0 dv=0
PairPos2: "'kern' Horizontal Kerning lookup 0 subtable 0" uniFE9F dx=-128 dy=0 dh=-128 dv=0 dx=0 dy=0 dh=0 dv=0
PairPos2: "'kern' Horizontal Kerning lookup 0 subtable 0" uniFE9B dx=-128 dy=0 dh=-128 dv=0 dx=0 dy=0 dh=0 dv=0
PairPos2: "'kern' Horizontal Kerning lookup 0 subtable 0" uni062B dx=-128 dy=0 dh=-128 dv=0 dx=0 dy=0 dh=0 dv=0
PairPos2: "'kern' Horizontal Kerning lookup 0 subtable 0" uniFE97 dx=-128 dy=0 dh=-128 dv=0 dx=0 dy=0 dh=0 dv=0
PairPos2: "'kern' Horizontal Kerning lookup 0 subtable 0" uni062A dx=-128 dy=0 dh=-128 dv=0 dx=0 dy=0 dh=0 dv=0
PairPos2: "'kern' Horizontal Kerning lookup 0 subtable 0" uni0629 dx=-128 dy=0 dh=-128 dv=0 dx=0 dy=0 dh=0 dv=0
PairPos2: "'kern' Horizontal Kerning lookup 0 subtable 0" uniFE91 dx=-53 dy=0 dh=-53 dv=0 dx=0 dy=0 dh=0 dv=0
PairPos2: "'kern' Horizontal Kerning lookup 0 subtable 0" uni0628 dx=-128 dy=0 dh=-128 dv=0 dx=0 dy=0 dh=0 dv=0
PairPos2: "'kern' Horizontal Kerning lookup 0 subtable 0" uni0627 dx=-150 dy=0 dh=-150 dv=0 dx=0 dy=0 dh=0 dv=0
PairPos2: "'kern' Horizontal Kerning lookup 0 subtable 0" uni0622 dx=-150 dy=0 dh=-150 dv=0 dx=0 dy=0 dh=0 dv=0
PairPos2: "'kern' Horizontal Kerning lookup 0 subtable 0" uniFB94 dx=-235 dy=0 dh=-235 dv=0 dx=0 dy=0 dh=0 dv=0
PairPos2: "'kern' Horizontal Kerning lookup 0 subtable 0" uni06AF dx=-235 dy=0 dh=-235 dv=0 dx=0 dy=0 dh=0 dv=0
PairPos2: "'kern' Horizontal Kerning lookup 0 subtable 0" uniFB56 dx=-128 dy=0 dh=-128 dv=0 dx=0 dy=0 dh=0 dv=0
PairPos2: "'kern' Horizontal Kerning lookup 0 subtable 0" uni067E dx=-128 dy=0 dh=-128 dv=0 dx=0 dy=0 dh=0 dv=0
Substitution2: "'fina' Terminal Forms in Arabic lookup 9 subtable" uniFEAE
EndChar

StartChar: uni0633
Encoding: 1587 1587 27
GlifName: uni0633
Width: 2349
GlyphClass: 2
Flags: HW
AnchorPoint: "Anchor-7" 666 -734 basechar 0
AnchorPoint: "Anchor-10" 1670 946 basechar 0
LayerCount: 2
Fore
SplineSet
1932 180 m 0
 2042 180 2097 234 2097 341 c 0
 2097 377 2070 469 2018 615 c 1
 2127 741 l 2
 2138 754 2151 747 2165 718 c 0
 2221 602 2249 493 2249 384 c 0
 2249 189 2120 1 1939 0 c 0
 1822 0 1739 43 1692 129 c 1
 1627 43 1562 0 1460 0 c 0
 1381 0 1327 16 1298 48 c 1
 1298 -338 1058 -539 667 -539 c 0
 329 -539 108 -366 108 -35 c 0
 108 101 141 241 206 385 c 1
 316 352 l 1
 278 227 259 114 259 13 c 0
 259 -235 397 -359 674 -359 c 0
 935 -359 1147 -239 1147 -17 c 0
 1147 60 1106 172 1024 328 c 1
 1120 475 l 2
 1138 503 1154 482 1171 446 c 0
 1205 375 1233 319 1257 279 c 0
 1296.26757812 213.5546875 1364 180 1458 180 c 0
 1562 180 1608.29199219 231.067382812 1618 333 c 2
 1636 522 l 1
 1749 522 l 1
 1766 332 l 2
 1775.03654951 231.003270219 1824 180 1932 180 c 0
EndSplineSet
Substitution2: "'fina' Terminal Forms in Arabic lookup 9 subtable" uniFEB2
Substitution2: "'medi' Medial Forms in Arabic lookup 11 subtable" uniFEB4
Substitution2: "'init' Initial Forms in Arabic lookup 13 subtable" uniFEB3
EndChar

StartChar: uni0635
Encoding: 1589 1589 29
GlifName: uni0635
Width: 2603
GlyphClass: 2
Flags: HW
AnchorPoint: "Anchor-7" 666 -734 basechar 0
AnchorPoint: "Anchor-10" 2104 1098 basechar 0
LayerCount: 2
Fore
SplineSet
1452 181 m 1
 1687 556 1927 743 2169 743 c 0
 2372 743 2500 608 2500 419 c 0
 2500 139 2277 0 1832 0 c 2
 1586 0 l 2
 1435 0 1339 16 1298 48 c 1
 1298 -336 1067 -539 666 -539 c 0
 328 -539 108 -365 108 -35 c 0
 108 101 141 241 206 385 c 1
 316 352 l 1
 278 227 259 114 259 13 c 0
 259 -235 397 -359 674 -359 c 0
 920 -359 1147 -247 1147 -17 c 0
 1147 60 1106 172 1024 328 c 1
 1120 475 l 1
 1141 502 1152 483 1171 446 c 2
 1243 301 l 2
 1286 218 1358 181 1452 181 c 1
2342 400 m 0
 2342 505 2269 566 2156 566 c 0
 1998 566 1814 438 1602 181 c 1
 1843 181 l 2
 2141 181 2342 209 2342 400 c 0
EndSplineSet
Substitution2: "'fina' Terminal Forms in Arabic lookup 9 subtable" uniFEBA
Substitution2: "'medi' Medial Forms in Arabic lookup 11 subtable" uniFEBC
Substitution2: "'init' Initial Forms in Arabic lookup 13 subtable" uniFEBB
EndChar

StartChar: uni0637
Encoding: 1591 1591 31
GlifName: uni0637
Width: 1540
GlyphClass: 2
Flags: HW
AnchorPoint: "Anchor-10" 468 1490 basechar 0
AnchorPoint: "Anchor-7" 683 -220 basechar 0
LayerCount: 2
Fore
SplineSet
1437 419 m 0
 1437 139 1217 0 778 0 c 2
 220 0 l 1
 108 155 l 2
 100 164 105 181 124 181 c 2
 393 181 l 1
 415 215 438 248 462 282 c 1
 461 372 441 921 399 1310 c 1
 549 1397 l 2
 566 1407 575 1399 575 1372 c 2
 591 451 l 1
 757 645 929 743 1106 743 c 0
 1310 743 1437 608 1437 419 c 0
1278 400 m 0
 1278 505 1206 566 1093 566 c 0
 935 566 751 438 539 181 c 1
 780 181 l 2
 1078 181 1278 208 1278 400 c 0
EndSplineSet
Substitution2: "'fina' Terminal Forms in Arabic lookup 9 subtable" uniFEC2
Substitution2: "'medi' Medial Forms in Arabic lookup 11 subtable" uniFEC4
Substitution2: "'init' Initial Forms in Arabic lookup 13 subtable" uniFEC3
EndChar

StartChar: uni0639
Encoding: 1593 1593 33
GlifName: uni0639
Width: 1262
GlyphClass: 2
Flags: HW
AnchorPoint: "Anchor-7" 701 -822 basechar 0
AnchorPoint: "Anchor-10" 685 1286 basechar 0
LayerCount: 2
Fore
SplineSet
763 -485 m 0
 881 -485 1007 -477 1145 -458 c 0
 1168 -455 1166.58738635 -482.678019916 1156 -502 c 2
 1116 -575 l 2
 1095.55837783 -612.305960456 1080 -635 1047 -640 c 0
 978.200744754 -650.424129583 891 -655 788 -655 c 0
 390 -655 103 -514 103 -182 c 0
 103 44 232 235 460 360 c 1
 367 426 316 526 316 622 c 0
 316 831 492 993 704 993 c 4
 825 993 926 951 1001 875 c 1
 990 836 970 794 955 758 c 1
 861 795 776 813 703 813 c 0
 551 813 459 689 459 637 c 0
 459 582 577 446 679 446 c 1
 778 461 978 488 1068 498 c 0
 1090 500 1099 490 1091 466 c 2
 1033 295 l 1
 629 295 250 158 250 -152 c 0
 250 -375 420 -485 763 -485 c 0
EndSplineSet
Substitution2: "'fina' Terminal Forms in Arabic lookup 9 subtable" uniFECA
Substitution2: "'medi' Medial Forms in Arabic lookup 11 subtable" uniFECC
Substitution2: "'init' Initial Forms in Arabic lookup 13 subtable" uniFECB
EndChar

StartChar: uni0640
Encoding: 1600 1600 35
GlifName: afii57440
Width: 245
GlyphClass: 2
Flags: HW
AnchorPoint: "Anchor-10" 128 870 basechar 0
AnchorPoint: "Anchor-7" 125 -198 basechar 0
LayerCount: 2
Fore
SplineSet
-60 77 m 2
 -60 102 l 2
 -60 154 -42 180 -5 180 c 2
 250 180 l 2
 267 180 275 154 275 102 c 2
 275 77 l 2
 275 26 267 0 250 0 c 2
 -5 0 l 2
 -42 0 -60 26 -60 77 c 2
EndSplineSet
EndChar

StartChar: uni0643
Encoding: 1603 1603 38
GlifName: uni0643
Width: 1878
GlyphClass: 2
Flags: HW
AnchorPoint: "Anchor-10" 970 1325 basechar 0
AnchorPoint: "Anchor-7" 832 -204 basechar 0
LayerCount: 2
Fore
SplineSet
891 658 m 0
 965 658 1076 675 1076 734 c 0
 1076 764 1031 788 940 808 c 0
 827 832 771 897 771 1005 c 0
 771 1133 878 1207 1089 1236 c 0
 1123 1242 1142 1231 1132 1201 c 2
 1096 1097 l 1
 933 1081 850 1047 850 997 c 0
 850 967 895 944 986 928 c 0
 1104 907 1166 851 1166 734 c 0
 1166 588 1043 520 887 520 c 0
 810 520 745 531 671 555 c 1
 684 696 l 1
 756 671 825 658 891 658 c 0
1721 801 m 2
 1720 434 1681 221 1602 163 c 0
 1456 56 1191 2 809 2 c 4
 424 2 104 91 104 445 c 0
 104 528 123 632 170 727 c 1
 271 692 l 1
 249 613 244 563 244 514 c 0
 244 240 507 180 823 180 c 0
 1107 180 1366 203 1536 300 c 0
 1564 316 1579 404 1579 563 c 0
 1579 803 1572 933 1537 1289 c 1
 1685 1403 l 2
 1706 1420 1722 1418 1722 1380 c 2
 1721 801 l 2
EndSplineSet
Substitution2: "'fina' Terminal Forms in Arabic lookup 9 subtable" uniFEDA
Substitution2: "'medi' Medial Forms in Arabic lookup 11 subtable" uniFEDC
Substitution2: "'init' Initial Forms in Arabic lookup 13 subtable" uniFEDB
EndChar

StartChar: uni0644
Encoding: 1604 1604 39
GlifName: uni0644
Width: 1345
GlyphClass: 2
Flags: HW
AnchorPoint: "Anchor-10" 571 1009 basechar 0
AnchorPoint: "Anchor-7" 646 -732 basechar 0
LayerCount: 2
Fore
SplineSet
1196 88 m 6
 1206 -327 1018 -539 649 -539 c 4
 319 -539 107 -348 107 -25 c 4
 107 101 141 238 210 385 c 5
 320 352 l 5
 280 223 260 113 260 19 c 4
 260 -233 391 -359 653 -359 c 4
 924 -359 1051 -228 1051 38 c 4
 1051 212 1020 880 992 1303 c 5
 1137 1390 l 6
 1156 1401 1165 1395 1166 1372 c 6
 1196 88 l 6
EndSplineSet
Substitution2: "'fina' Terminal Forms in Arabic lookup 9 subtable" uniFEDE
Substitution2: "'medi' Medial Forms in Arabic lookup 11 subtable" uniFEE0
Substitution2: "'init' Initial Forms in Arabic lookup 13 subtable" uniFEDF
EndChar

StartChar: uni0645
Encoding: 1605 1605 40
GlifName: uni0645
Width: 1110
GlyphClass: 2
Flags: HW
AnchorPoint: "Anchor-10" 609 1092 basechar 0
AnchorPoint: "Anchor-7" 207 -859 basechar 0
LayerCount: 2
Fore
SplineSet
395 95 m 0
 320 95 271 89 250 77 c 1
 263 -517 l 2
 264 -578 236 -637 177 -697 c 0
 152 -723 122 -744 120 -693 c 0
 113 -529 108 -363 105 -198 c 1
 105 42 133 213 290 269 c 1
 350 493 439 725 629 725 c 4
 805 725 1010 464 1010 291 c 0
 1010 159 869 41 829 41 c 0
 824 41 807 44 781 49 c 0
 702 65 533 95 395 95 c 0
412 276 m 1
 488.326659134 272.017739523 554.521563669 266.713945838 609.99997033 259.796247308 c 0
 669.067791181 252.43097851 790.557736923 229 822 229 c 0
 845 229 857 236 857 251 c 0
 857 376 728 541 613 541 c 0
 502 541 454 402 412 276 c 1
EndSplineSet
Substitution2: "'init' Initial Forms in Arabic lookup 13 subtable" uniFEE3
Substitution2: "'medi' Medial Forms in Arabic lookup 11 subtable" uniFEE4
Substitution2: "'fina' Terminal Forms in Arabic lookup 9 subtable" uniFEE2
EndChar

StartChar: uni0647
Encoding: 1607 1607 42
GlifName: uni0647
Width: 877
GlyphClass: 2
Flags: HW
AnchorPoint: "Anchor-10" 377 1134 basechar 0
AnchorPoint: "Anchor-7" 421 -224 basechar 0
LayerCount: 2
Fore
SplineSet
430 6 m 0
 249 6 109 108 109 296 c 0
 109 431 177 592 313 776 c 0
 331 800 346.870880519 809.694128323 375 798 c 0
 642 687 776 522 776 334 c 0
 776 126 640 6 430 6 c 0
368 597 m 1
 285 486 244 390 244 311 c 0
 244 228 312 186 448 186 c 0
 580 186 646 231 646 320 c 0
 646 399 574 494 368 597 c 1
EndSplineSet
Substitution2: "'fina' Terminal Forms in Arabic lookup 9 subtable" uniFEEA
Substitution2: "'medi' Medial Forms in Arabic lookup 11 subtable" uniFEEC
Substitution2: "'init' Initial Forms in Arabic lookup 13 subtable" uniFEEB
EndChar

StartChar: uni0648
Encoding: 1608 1608 43
GlifName: uni0648
Width: 806
GlyphClass: 2
Flags: HW
AnchorPoint: "Anchor-7" 356 -678 basechar 0
AnchorPoint: "Anchor-10" 385 994 basechar 0
LayerCount: 2
Fore
SplineSet
556 5 m 1
 507 -1 449 -7 399 -7 c 0
 219 -7 95 70 95 239 c 0
 95 384 174 668 401 668 c 0
 616 668 711 418 711 136 c 0
 711 -280 409 -475 174 -535 c 0
 144 -543 125 -535 105 -512 c 2
 64 -460 l 2
 48 -439 31 -410 61 -402 c 0
 346 -324 511 -189 556 5 c 1
238 278 m 0
 238 194 331 174 426 174 c 0
 471 174 517 180 562 191 c 1
 550 331 506 491 391 491 c 0
 268 491 238 322 238 278 c 0
EndSplineSet
Substitution2: "'fina' Terminal Forms in Arabic lookup 9 subtable" uniFEEE
EndChar

StartChar: uni0649
Encoding: 1609 1609 44
GlifName: uni0649
Width: 1474
GlyphClass: 2
Flags: HW
AnchorPoint: "Anchor-10" 640 901 basechar 0
AnchorPoint: "Anchor-7" 699 -664 basechar 0
LayerCount: 2
Fore
SplineSet
1256 520 m 0
 1045 520 921 399 885 235 c 1
 1162 159 l 2
 1262.77538102 131.350436977 1314 80 1314 5 c 0
 1314 -231 1102 -489 663 -489 c 0
 330 -489 107 -309 107 15 c 0
 107 144 141 284 210 435 c 1
 320 402 l 1
 282 277 263 164 263 63 c 0
 263 -185 401 -309 676 -309 c 0
 1038 -309 1191 -106 1191 -55 c 0
 1191 -40 1179.43701003 -32.1506861483 1157 -26 c 2
 898 45 l 2
 799 71 745 97 745 167 c 0
 745 298 858 710 1253 710 c 0
 1295 710 1339 703 1383 690 c 5
 1348 517 l 5
 1310 519 1284 520 1256 520 c 0
EndSplineSet
Substitution2: "'fina' Terminal Forms in Arabic lookup 9 subtable" uniFEF0
Substitution2: "'medi' Medial Forms in Arabic lookup 11 subtable" uniFBE9
Substitution2: "'init' Initial Forms in Arabic lookup 13 subtable" uniFBE8
EndChar

StartChar: uni064B
Encoding: 1611 1611 46
GlifName: uni064B_
Width: 10
VWidth: 2316
GlyphClass: 4
Flags: HW
AnchorPoint: "Anchor-10" 583.551 1123.65 mark 0
AnchorPoint: "Anchor-9" 583.551 1123.65 mark 0
AnchorPoint: "Anchor-1" 553.285 1596.25 basemark 0
AnchorPoint: "Anchor-1" 583.551 1123.65 mark 0
LayerCount: 2
Fore
SplineSet
327 1076 m 1
 327 1180 l 1
 782 1366 l 1
 782 1263 l 1
 327 1076 l 1
327 1288 m 1
 327 1392 l 1
 782 1578 l 1
 782 1475 l 1
 327 1288 l 1
EndSplineSet
EndChar

StartChar: uni064C
Encoding: 1612 1612 47
GlifName: uni064C_
Width: 0
VWidth: 2316
GlyphClass: 4
Flags: HW
AnchorPoint: "Anchor-10" 680.906 1278.67 mark 0
AnchorPoint: "Anchor-9" 680.906 1278.67 mark 0
AnchorPoint: "Anchor-1" 637.739 1852.46 basemark 0
AnchorPoint: "Anchor-1" 680.906 1278.67 mark 0
LayerCount: 2
Fore
SplineSet
489 1629 m 0
 489 1726.34403608 557.578720581 1791 652 1791 c 0
 746.9412073 1791 814 1727.26136914 814 1628 c 0
 814 1589 804 1547 787 1507 c 1
 804 1504 819 1503 830 1503 c 1
 830 1427 l 1
 810 1428 786 1430 754 1436 c 1
 690.818294178 1315.56736709 597.606445312 1250.9921875 471.8671875 1250.9921875 c 0
 339.267578125 1250.9921875 270.984375 1343.99511719 268 1530 c 1
 347 1544 l 1
 350 1400 392 1329 473 1329 c 0
 547 1329 614 1373 673 1448 c 1
 567.206830152 1485.02760945 489 1533.83885907 489 1629 c 0
709 1523 m 1
 723.053510163 1555.79152371 736 1594.57522464 736 1627 c 0
 736 1675.05260976 699.641537636 1711 656 1711 c 0
 605.751193998 1711 569 1677.13488171 569 1625 c 0
 569 1567.8418395 644.003567546 1540.204938 709 1523 c 1
EndSplineSet
EndChar

StartChar: uni064D
Encoding: 1613 1613 48
GlifName: uni064D_
Width: 3
VWidth: 2316
GlyphClass: 4
Flags: HW
AnchorPoint: "Anchor-7" 545.278 32.7109 mark 0
AnchorPoint: "Anchor-6" 545.278 32.7109 mark 0
AnchorPoint: "Anchor-0" 595.022 -407.025 basemark 0
AnchorPoint: "Anchor-0" 545.278 32.7109 mark 0
LayerCount: 2
Fore
SplineSet
335 -446 m 1
 335 -342 l 1
 791 -156 l 1
 791 -260 l 1
 335 -446 l 1
335 -234 m 1
 335 -130 l 1
 791 56 l 1
 791 -48 l 1
 335 -234 l 1
EndSplineSet
EndChar

StartChar: uni064E
Encoding: 1614 1614 49
GlifName: uni064E_
Width: 0
VWidth: 2316
GlyphClass: 4
Flags: HW
AnchorPoint: "Anchor-10" 545.66 1397.63 mark 0
AnchorPoint: "Anchor-9" 545.66 1397.63 mark 0
AnchorPoint: "Anchor-1" 541.396 1651.77 basemark 0
AnchorPoint: "Anchor-1" 545.66 1397.63 mark 0
LayerCount: 2
Fore
SplineSet
296 1349 m 1
 296 1453 l 1
 752 1639 l 1
 752 1535 l 1
 296 1349 l 1
EndSplineSet
EndChar

StartChar: uni064F
Encoding: 1615 1615 50
GlifName: uni064F_
Width: 10
VWidth: 2316
GlyphClass: 4
Flags: HW
AnchorPoint: "Anchor-10" 591.295 1359.37 mark 0
AnchorPoint: "Anchor-9" 591.295 1359.37 mark 0
AnchorPoint: "Anchor-1" 542.134 1865.4 basemark 0
AnchorPoint: "Anchor-1" 591.295 1359.37 mark 0
LayerCount: 2
Fore
SplineSet
723 1427 m 1
 695 1427 669 1429 643 1433 c 1
 578 1342 420 1318 256 1309 c 1
 256 1387 l 1
 387 1399 519 1405 566 1455 c 1
 474.464114966 1471.64288819 380 1532.46344456 380 1626 c 0
 380 1723.76653486 448.787416907 1788 543 1788 c 0
 637.483259282 1788 706 1723.30209735 706 1625 c 0
 706 1586 697 1547 680 1506 c 1
 693 1504 708 1502 723 1502 c 1
 723 1427 l 1
600 1520 m 1
 614.053510163 1552.79152371 627 1591.57522464 627 1624 c 0
 627 1672.52693762 591.420717666 1707 547 1707 c 0
 496.353069173 1707 460 1674.44739485 460 1622 c 0
 460 1564.8418395 535.003567546 1537.204938 600 1520 c 1
EndSplineSet
EndChar

StartChar: uni0650
Encoding: 1616 1616 51
GlifName: uni0650
Width: 10
VWidth: 2316
GlyphClass: 4
Flags: HW
AnchorPoint: "Anchor-7" 571.144 -44.8242 mark 0
AnchorPoint: "Anchor-6" 571.144 -44.8242 mark 0
AnchorPoint: "Anchor-0" 619.091 -324.624 basemark 0
AnchorPoint: "Anchor-0" 571.144 -44.8242 mark 0
LayerCount: 2
Fore
SplineSet
343 -346 m 1
 343 -242 l 1
 798 -56 l 1
 798 -159 l 1
 343 -346 l 1
EndSplineSet
EndChar

StartChar: uni0651
Encoding: 1617 1617 52
GlifName: uni0651
Width: 0
GlyphClass: 4
Flags: HW
AnchorPoint: "Anchor-10" 590 1433 mark 0
AnchorPoint: "Anchor-9" 590 1433 mark 0
AnchorPoint: "Anchor-1" 560 1868 basemark 0
AnchorPoint: "Anchor-1" 590 1433 mark 0
LayerCount: 2
Fore
SplineSet
416 1543 m 0
 476.989856473 1543 508 1580.29777517 508 1651 c 2
 508 1768.33714721 l 1
 536.233920568 1777.04767918 565.13236105 1781.65600161 592.124043324 1784.48528289 c 1
 594.000650237 1701.91936533 l 2
 595.031325583 1638.01749389 625.254768326 1604 684 1604 c 0
 734.451955932 1604 761 1639.70222864 761 1705 c 0
 761 1729.26694449 759.970199299 1758.47898364 758.199543289 1783.43085626 c 1
 841.957097575 1838.36860692 l 1
 846.455609583 1797.4634343 849 1752.1954957 849 1712 c 0
 849 1551.61549648 798.925581903 1476 701 1476 c 0
 646.245938282 1476 604.773445933 1497.29762191 568.250925832 1533.82014198 c 1
 535.821826028 1455.78762057 487.22102185 1415 409 1415 c 0
 307.526732472 1415 257 1482.16585907 257 1623 c 0
 257 1661.43646043 259.787668655 1701.31613796 263.321058591 1737.85694735 c 1
 338.042478387 1707.61256315 l 1
 339.000797003 1631.91072852 l 2
 340.03048283 1574.24832225 365.998199431 1543 416 1543 c 0
EndSplineSet
EndChar

StartChar: uni0652
Encoding: 1618 1618 53
GlifName: uni0652
Width: 7
VWidth: 2316
GlyphClass: 4
Flags: HW
AnchorPoint: "Anchor-10" 615.219 1271.43 mark 0
AnchorPoint: "Anchor-9" 615.219 1271.43 mark 0
AnchorPoint: "Anchor-1" 589.537 1682.66 basemark 0
AnchorPoint: "Anchor-1" 615.219 1271.43 mark 0
LayerCount: 2
Fore
SplineSet
421.07421875 1461.82128906 m 128
 421.07421875 1558.0090031 498.217186311 1635.14941406 594.40234375 1635.14941406 c 128
 690.589197165 1635.14941406 767.731445312 1558.00592629 767.731445312 1461.82128906 c 128
 767.731445312 1365.63505466 690.585602301 1288.49316406 594.40234375 1288.49316406 c 128
 498.215665264 1288.49316406 421.07421875 1365.63709537 421.07421875 1461.82128906 c 128
502.666015625 1461.02246094 m 0
 501.783217866 1409.2985377 544.56744345 1367.02229206 596.758789062 1366.92871094 c 0
 648.762845901 1367.02318612 691.048987476 1409.12177258 690.8515625 1461.02246094 c 0
 691.04919912 1512.91897674 648.759953131 1554.96284711 596.758789062 1555.11425781 c 0
 544.563299839 1554.96425972 501.782224782 1512.74495934 502.666015625 1461.02246094 c 0
EndSplineSet
EndChar

StartChar: uni0653
Encoding: 1619 1619 54
GlifName: uni0653
Width: 0
GlyphClass: 4
Flags: HW
AnchorPoint: "Anchor-10" 485 1566 mark 0
AnchorPoint: "Anchor-9" 485 1566 mark 0
AnchorPoint: "Anchor-1" 455 2024 basemark 0
AnchorPoint: "Anchor-1" 485 1566 mark 0
LayerCount: 2
Fore
SplineSet
315 1826 m 4
 351 1826 405 1821 458 1815 c 4
 507 1809 554 1805 583 1805 c 4
 666 1805 725 1810 758 1818 c 4
 823 1834 840 1827 801 1769 c 0
 746 1691 689 1667 526 1667 c 0
 479 1667 424 1670 362 1675 c 1
 299 1670 237 1635 177 1582 c 1
 159 1594 144 1607 134 1621 c 1
 188 1761 249 1826 315 1826 c 4
EndSplineSet
EndChar

StartChar: uni0657
Encoding: 1623 1623 57
GlifName: uni0657
Width: 4
VWidth: 2316
GlyphClass: 4
Flags: HW
AnchorPoint: "Anchor-10" 513.285 1400.55 mark 0
AnchorPoint: "Anchor-9" 513.285 1400.55 mark 0
AnchorPoint: "Anchor-1" 537.285 2069.85 basemark 0
AnchorPoint: "Anchor-1" 513.285 1400.55 mark 0
LayerCount: 2
Fore
SplineSet
265 1805 m 1
 305 1804 348 1801 395 1796 c 1
 396 1797 l 2
 496 1939 625 2018 785 2033 c 1
 785 1955 l 1
 662 1935 562 1876 486 1778 c 1
 573.073233818 1752.51515108 658 1697.36135892 658 1599 c 0
 658 1507.71378279 593.059658194 1438 501 1438 c 0
 408.64267729 1438 332 1502.56128158 332 1603 c 0
 332 1632 339 1672 355 1722 c 1
 328 1724 299 1726 265 1726 c 1
 265 1805 l 1
501 1516 m 0
 549.036312445 1516 577 1548.90280457 577 1597 c 0
 577 1658.28540997 503.060368911 1693.27134074 437 1709 c 1
 419 1666 410 1632 410 1605 c 0
 410 1552.84187884 451.285616311 1516 501 1516 c 0
EndSplineSet
EndChar

StartChar: uni065A
Encoding: 1626 1626 58
GlifName: uni065A_
Width: 1135
VWidth: 2316
GlyphClass: 4
Flags: HW
AnchorPoint: "Anchor-10" 573.285 1350.55 mark 0
AnchorPoint: "Anchor-9" 573.285 1350.55 mark 0
AnchorPoint: "Anchor-1" 571.012 1862.38 basemark 0
AnchorPoint: "Anchor-1" 573.285 1350.55 mark 0
LayerCount: 2
Fore
SplineSet
502 1444 m 5
 309 1768 l 5
 433 1768 l 5
 573 1528 l 5
 714 1768 l 5
 838 1768 l 5
 644 1444 l 5
 502 1444 l 5
EndSplineSet
EndChar

StartChar: uni0660
Encoding: 1632 1632 59
GlifName: afii57392
Width: 834
GlyphClass: 2
Flags: HW
LayerCount: 2
Fore
SplineSet
417 747.525390625 m 5
 622.525390625 542 l 5
 417 336.474609375 l 5
 211.474609375 542 l 5
 417 747.525390625 l 5
EndSplineSet
EndChar

StartChar: uni0661
Encoding: 1633 1633 60
GlifName: afii57393
Width: 731
GlyphClass: 2
Flags: HW
LayerCount: 2
Fore
SplineSet
300 1326 m 4
 434 1000 517 601 517 140 c 0
 517 85 513 50 506 37 c 0
 503 32 466 21 394 2 c 1
 394 436 311 832 146 1207 c 5
 255 1343 l 6
 274 1365 288 1355 300 1326 c 4
EndSplineSet
EndChar

StartChar: uni0662
Encoding: 1634 1634 61
GlifName: afii57394
Width: 1095
GlyphClass: 2
Flags: HW
LayerCount: 2
Fore
SplineSet
602 981 m 4
 750 981 835 1080 855 1278 c 6
 859 1325 l 5
 982 1325 l 5
 979 1271 l 5
 965 943 833 799 582 799 c 4
 537 799 496 803 458 812 c 5
 497 627 517 395 517 140 c 4
 517 85 513 50 506 37 c 4
 503 32 466 21 394 2 c 5
 394 436 311 830 146 1207 c 5
 252 1339 l 6
 271 1362 286 1359 297 1329 c 4
 313 1286 336 1226 367 1149 c 4
 411 1036 488 981 602 981 c 4
EndSplineSet
EndChar

StartChar: uni0663
Encoding: 1635 1635 62
GlifName: afii57395
Width: 1295
GlyphClass: 2
Flags: HW
LayerCount: 2
Fore
SplineSet
458 802 m 1
 497 617 517 395 517 140 c 0
 517 85 513 50 506 37 c 0
 503 32 466 21 394 2 c 1
 394 436 311 830 146 1207 c 1
 252 1339 l 2
 271 1362 286 1359 297 1329 c 0
 313 1286 336 1226 367 1149 c 0
 412 1037 471 981 544 981 c 0
 639 981 690 1047 698 1179 c 2
 704 1286 l 1
 827 1286 l 1
 832 1174 l 2
 838 1045 878 980 952 980 c 0
 1022 980 1064 1059 1076 1218 c 2
 1083 1310 l 1
 1205 1310 l 1
 1205 1253 l 2
 1205 951 1114 802 932 802 c 4
 843 802 775 833 728 899 c 1
 681 825 612 797 522 797 c 0
 499 797 479 799 458 802 c 1
EndSplineSet
EndChar

StartChar: uni0664
Encoding: 1636 1636 63
GlifName: afii57396
Width: 991
GlyphClass: 2
Flags: HW
LayerCount: 2
Fore
SplineSet
345 264 m 4
 466 231 635 215 854 215 c 5
 850 55 l 6
 849 19 834 2 808 2 c 4
 547 2 140 74 140 238 c 4
 140 344 263 475 510 631 c 5
 313 720 146 805 146 928 c 4
 146 1049 329 1184 696 1333 c 4
 732 1347 742 1347 731 1298 c 6
 682 1074 l 5
 573 1060 454 1024 325 965 c 4
 290 949 291 931 323 911 c 4
 400 862 539 794 741 705 c 5
 742 685 744 651 747 601 c 5
 556 519 418 432 332 339 c 4
 301 306 295 279 345 264 c 4
EndSplineSet
EndChar

StartChar: uni0665
Encoding: 1637 1637 64
GlifName: afii57397
Width: 1115
GlyphClass: 2
Flags: HW
LayerCount: 2
Fore
SplineSet
535 988 m 5
 352 778 261 603 261 442 c 4
 261 279 358 199 550 199 c 4
 765 199 873 279 873 439 c 4
 873 606 760 782 535 988 c 5
354 1130 m 5
 478 1344 l 5
 822 1023 994 724 994 427 c 4
 994 156 827 2 539 2 c 4
 284 2 124 159 124 417 c 4
 124 615 227 827 432 1072 c 5
 354 1130 l 5
EndSplineSet
EndChar

StartChar: uni0666
Encoding: 1638 1638 65
GlifName: afii57398
Width: 1171
GlyphClass: 2
Flags: HW
LayerCount: 2
Fore
SplineSet
844 1301 m 1
 857 658 925 280 1051 147 c 1
 926 0 l 5
 732 208 709 650 709 1100 c 1
 607 1092 518 1088 441 1088 c 0
 292 1088 190 1103 135 1135 c 0
 107 1151 92 1216 90 1326 c 0
 90 1348 99 1355 116 1349 c 0
 238 1303 382 1280 549 1280 c 0
 641 1280 739 1287 844 1301 c 1
EndSplineSet
EndChar

StartChar: uni0667
Encoding: 1639 1639 66
GlifName: afii57399
Width: 1203
GlyphClass: 2
Flags: HW
LayerCount: 2
Fore
SplineSet
1103 1182 m 1
 902 859 756 480 667 2 c 1
 556 2 l 1
 477 446 326 826 101 1183 c 5
 199 1347 l 6
 204 1356 210 1355 218 1342 c 4
 419 1006 550 690 612 356 c 1
 699 762 816 1076 964 1337 c 0
 972 1351 979 1353 986 1346 c 2
 1103 1182 l 1
EndSplineSet
EndChar

StartChar: uni0668
Encoding: 1640 1640 67
GlifName: afii57400
Width: 1203
GlyphClass: 2
Flags: HW
LayerCount: 2
Fore
SplineSet
1103 149 m 5
 986 -15 l 6
 979 -22 972 -20 964 -6 c 4
 816 255 699 569 612 975 c 5
 550 641 419 325 218 -11 c 4
 210 -24 204 -25 199 -16 c 6
 101 147 l 5
 326 504 477 885 556 1329 c 5
 667 1329 l 5
 756 851 902 472 1103 149 c 5
EndSplineSet
EndChar

StartChar: uni0669
Encoding: 1641 1641 68
GlifName: afii57401
Width: 1039
GlyphClass: 2
Flags: HW
LayerCount: 2
Fore
SplineSet
447 821 m 0
 499 821 570 829 629 844 c 1
 618 1039 568 1163 430 1163 c 4
 328 1163 274 1045 274 940 c 0
 274 835 346 821 447 821 c 0
441 1343 m 0
 675 1343 757 1126 768 855 c 0
 784 477 845 244 950 146 c 1
 826 0 l 1
 692 128 655 340 644 657 c 1
 575 646 512 641 457 641 c 0
 236 641 131 722 131 908 c 0
 131 1023 184 1343 441 1343 c 0
EndSplineSet
EndChar

StartChar: uni066A
Encoding: 1642 1642 69
GlifName: afii57381
Width: 1033
VWidth: 4036
GlyphClass: 2
Flags: HW
LayerCount: 2
Fore
SplineSet
741.888671875 1331.76074219 m 1
 874 1272 l 1
 292.056640625 -14.501953125 l 1
 159.944335938 45.2587890625 l 1
 741.888671875 1331.76074219 l 1
637 173 m 0
 637 246 697 307 770 307 c 0
 843 307 903 246 903 173 c 0
 903 100 843 40 770 40 c 0
 696 40 637 97 637 173 c 0
130 1139 m 0
 130 1212 190 1273 263 1273 c 0
 336 1273 396 1212 396 1139 c 0
 396 1066 336 1006 263 1006 c 0
 189 1006 130 1063 130 1139 c 0
EndSplineSet
EndChar

StartChar: uni066B
Encoding: 1643 1643 70
GlifName: uni066B_
Width: 772
VWidth: 2950
GlyphClass: 2
Flags: HW
LayerCount: 2
Fore
SplineSet
534 713 m 5
 652 659 l 5
 187 -407 l 5
 69 -352 l 5
 534 713 l 5
EndSplineSet
PairPos2: "'kern' Horizontal Kerning lookup 0 subtable 6" uni06F4 dx=-110 dy=0 dh=-110 dv=0 dx=0 dy=0 dh=0 dv=0
PairPos2: "'kern' Horizontal Kerning lookup 0 subtable 6" uni06F3 dx=-130 dy=0 dh=-130 dv=0 dx=0 dy=0 dh=0 dv=0
PairPos2: "'kern' Horizontal Kerning lookup 0 subtable 6" uni06F2 dx=-130 dy=0 dh=-130 dv=0 dx=0 dy=0 dh=0 dv=0
EndChar

StartChar: uni066C
Encoding: 1644 1644 71
GlifName: uni066C_
Width: 503
GlyphClass: 2
Flags: HW
LayerCount: 2
Fore
SplineSet
116 111 m 4
 116 183 158 235 234 235 c 4
 322 235 362 182 362 74 c 4
 362 -53 315 -170 168 -258 c 4
 108 -294 76.41015625 -247.052734375 105 -222 c 4
 202 -137 229 -68 229 -27 c 5
 152 13 116 34 116 111 c 4
EndSplineSet
PairPos2: "'kern' Horizontal Kerning lookup 0 subtable 6" uni06F4 dx=-112 dy=0 dh=-112 dv=0 dx=0 dy=0 dh=0 dv=0
PairPos2: "'kern' Horizontal Kerning lookup 0 subtable 6" uni06F3 dx=-128 dy=0 dh=-128 dv=0 dx=0 dy=0 dh=0 dv=0
PairPos2: "'kern' Horizontal Kerning lookup 0 subtable 6" uni06F2 dx=-112 dy=0 dh=-112 dv=0 dx=0 dy=0 dh=0 dv=0
EndChar

StartChar: uni066D
Encoding: 1645 1645 72
GlifName: afii63167
Width: 1734
GlyphClass: 2
Flags: HW
LayerCount: 2
Fore
SplineSet
219 1159 m 1
 714 1159 l 1
 869 1630 l 1
 1024 1159 l 1
 1519 1159 l 1
 1119 866 l 1
 1272 396 l 1
 869 687 l 1
 466 396 l 1
 619 866 l 1
 219 1159 l 1
EndSplineSet
EndChar

StartChar: uni066E
Encoding: 1646 1646 73
GlifName: uni066E_
Width: 1788
GlyphClass: 2
Flags: HW
AnchorPoint: "Anchor-10" 778 1272 basechar 0
AnchorPoint: "Anchor-7" 636 -212 basechar 0
LayerCount: 2
Fore
SplineSet
834 2 m 4
 428 2 104 85 104 447 c 4
 104 529 124 633 171 727 c 5
 272 692 l 5
 250 609 243 557 243 506 c 4
 243 257 496 180 835 180 c 4
 1229 180 1536 251 1536 353 c 4
 1536 412 1512 480 1465 619 c 5
 1574 748 l 6
 1585 761 1598.28769952 749.147010388 1613 720 c 4
 1666 615 1683 509 1683 434 c 4
 1683 101 1391 2 834 2 c 4
EndSplineSet
Substitution2: "'fina' Terminal Forms in Arabic lookup 9 subtable" uni066E.fina
EndChar

StartChar: uni066F
Encoding: 1647 1647 74
GlifName: uni066F_
Width: 1390
GlyphClass: 2
Flags: HW
AnchorPoint: "Anchor-10" 537 1166 basechar 0
AnchorPoint: "Anchor-7" 558 -696 basechar 0
LayerCount: 2
Fore
SplineSet
976 83 m 0
 804 83 684 156 684 317 c 0
 684 545 802 752 980 752 c 4
 1213 752 1290 483 1290 170 c 0
 1290 -253 1067 -438 659 -438 c 0
 322 -438 102 -263 102 66 c 0
 102 202 135 342 200 486 c 1
 310 454 l 1
 272 329 253 216 253 115 c 0
 253 -133 391 -258 668 -258 c 0
 940 -258 1139 -160 1150 104 c 1
 1087 90 1028 83 976 83 c 0
977 266 m 0
 1035 266 1114 281 1149 298 c 1
 1138 440 1097 564 972 564 c 0
 886 564 815 488 815 372 c 0
 815 289 888 266 977 266 c 0
EndSplineSet
Substitution2: "'fina' Terminal Forms in Arabic lookup 9 subtable" uni066F.fina
EndChar

StartChar: uni0670
Encoding: 1648 1648 75
GlifName: uni0670
Width: 0
GlyphClass: 4
Flags: HW
AnchorPoint: "Anchor-10" 776 1776 mark 0
AnchorPoint: "Anchor-9" 776 1776 mark 0
AnchorPoint: "Anchor-1" 744 2317 basemark 0
AnchorPoint: "Anchor-1" 776 1776 mark 0
LayerCount: 2
Fore
SplineSet
739 1810 m 1
 684 2164 l 1
 805 2235 l 1
 805 1831 l 1
 739 1810 l 1
EndSplineSet
EndChar

StartChar: uni0674
Encoding: 1652 1652 76
GlifName: uni0674
Width: 802
GlyphClass: 2
Flags: HW
LayerCount: 2
Fore
SplineSet
206.396501817 1799.59094729 m 1
 225.518698197 1922.51935259 l 1
 261.532254949 1938.27528367 297.545811689 1954.03121475 333.559368451 1969.78714582 c 1
 257.778343029 1984.94335093 216 2018.51038602 216 2099 c 0
 216 2177.73917003 246.657226562 2336 413 2336 c 0
 462.599609375 2336 511.631835938 2312.52050781 560.028320312 2266.78417969 c 1
 528.173161627 2198.06336172 l 1
 486.190148587 2210.44772498 449.728357692 2217 418 2217 c 0
 351.090210744 2217 299 2182.57853988 299 2141 c 0
 299 2096.62000727 343.918014883 2041 433 2041 c 0
 461.4987362 2041 494.854604456 2045.05178931 532.348149628 2055.1851799 c 0
 543.347776973 2058.26507556 581 2068.97524557 581 2055 c 6
 581 1953.85236527 l 1
 504.133588114 1933.24964604 377.763733701 1881.18860657 206.396501817 1799.59094729 c 1
EndSplineSet
EndChar

StartChar: uni0686
Encoding: 1670 1670 78
GlifName: afii57507
Width: 1296
GlyphClass: 2
Flags: HW
AnchorPoint: "Anchor-10" 660 1081 basechar 0
AnchorPoint: "Anchor-7" 701 -822 basechar 0
LayerCount: 2
Fore
SplineSet
777 -305.764648438 m 1
 652.96484375 -181.73046875 l 1
 777 -57.6953125 l 1
 901.03515625 -181.73046875 l 1
 777 -305.764648438 l 1
927.080078125 -83.3046875 m 1
 803.044921875 40.73046875 l 1
 927.080078125 164.764648438 l 1
 1051.11523438 40.73046875 l 1
 927.080078125 -83.3046875 l 1
626.919921875 -83.3046875 m 1
 502.884765625 40.73046875 l 1
 626.919921875 164.764648438 l 1
 750.955078125 40.73046875 l 1
 626.919921875 -83.3046875 l 1
EndSplineSet
Refer: 21 1581 N 1 0 0 1 0 0 2
Substitution2: "'fina' Terminal Forms in Arabic lookup 9 subtable" uniFB7B
Substitution2: "'medi' Medial Forms in Arabic lookup 11 subtable" uniFB7D
Substitution2: "'init' Initial Forms in Arabic lookup 13 subtable" uniFB7C
EndChar

StartChar: uni06A1
Encoding: 1697 1697 80
GlifName: uni06A_1
Width: 1728
GlyphClass: 2
Flags: HW
AnchorPoint: "Anchor-10" 740 1448 basechar 0
AnchorPoint: "Anchor-7" 613 -198 basechar 0
LayerCount: 2
Fore
SplineSet
1308 553 m 0
 1378 553 1435 562 1481 580 c 1
 1470 714 1426 835 1299 835 c 0
 1218 835 1147 754 1147 644 c 0
 1147 575 1227 553 1308 553 c 0
1312 375 m 0
 1126 377 1016 424 1016 588 c 0
 1016 816 1128 1024 1312 1024 c 0
 1543 1024 1626 736 1626 463 c 0
 1626 297.667558181 1581.66563882 191.494662009 1500.00001347 123.365912963 c 0
 1364.32852844 10.1833038113 1125.6252474 2 816 2 c 4
 428 2 104 89 104 445 c 4
 104 528 123 632 170 727 c 5
 271 692 l 5
 249 613 244 563 244 514 c 4
 244 250 484 181 856 181 c 0
 1316 181 1482 197 1482 397 c 1
 1410 383 1353 375 1312 375 c 0
EndSplineSet
Substitution2: "'init' Initial Forms in Arabic lookup 13 subtable" uni06A1.init
Substitution2: "'medi' Medial Forms in Arabic lookup 11 subtable" uni06A1.medi
Substitution2: "'fina' Terminal Forms in Arabic lookup 9 subtable" uni06A1.fina
EndChar

StartChar: uni06A9
Encoding: 1705 1705 81
GlifName: uni06A_9
Width: 1848
GlyphClass: 2
Flags: HW
AnchorPoint: "Anchor-10" 1187 1413 basechar 0
AnchorPoint: "Anchor-7" 799 -206 basechar 0
LayerCount: 2
Fore
SplineSet
1136 1033 m 1
 1461 740 1625 539 1625 402 c 0
 1625 163 1310 2 809 2 c 4
 424 2 104 91 104 445 c 0
 104 528 123 632 170 727 c 1
 271 692 l 1
 249 613 244 563 244 514 c 0
 244 239 525 180 828 180 c 0
 1270 180 1484 322 1484 405 c 0
 1484 476 1308 659 956 955 c 1
 993 1143 l 1
 1765 1426 l 2
 1793 1436 1792.48242188 1432.78710938 1788 1403.70703125 c 2
 1764 1248 l 1
 1136 1033 l 1
EndSplineSet
Substitution2: "'init' Initial Forms in Arabic lookup 13 subtable" uniFB90
Substitution2: "'medi' Medial Forms in Arabic lookup 11 subtable" uniFB91
Substitution2: "'fina' Terminal Forms in Arabic lookup 9 subtable" uniFB8F
EndChar

StartChar: uni06AF
Encoding: 1711 1711 82
GlifName: uni06A_F_
Width: 1851
GlyphClass: 2
Flags: HW
AnchorPoint: "Anchor-10" 1259 1563 basechar 0
AnchorPoint: "Anchor-7" 799 -206 basechar 0
LayerCount: 2
Fore
SplineSet
1138 973 m 1
 1431 722 1578 533 1578 406 c 0
 1578 181 1238 2 826 2 c 4
 427 2 104 89 104 447 c 4
 104 540 123 633 170 727 c 5
 271 692 l 5
 249 613 244 563 244 509 c 4
 244 240 520 179 819 179 c 0
 1188 179 1438 327 1438 403 c 0
 1438 474 1232 667 959 895 c 1
 995 1083 l 1
 1767 1366 l 2
 1795 1376 1794.48242188 1372.78710938 1790 1343.70703125 c 2
 1766 1188 l 1
 1138 973 l 1
EndSplineSet
Refer: 273 -1 N 1.1342 0 0 1.1342 962 -757 2
Substitution2: "'fina' Terminal Forms in Arabic lookup 9 subtable" uniFB93
Substitution2: "'medi' Medial Forms in Arabic lookup 11 subtable" uniFB95
Substitution2: "'init' Initial Forms in Arabic lookup 13 subtable" uniFB94
EndChar

StartChar: uni06BA
Encoding: 1722 1722 83
GlifName: afii57514
Width: 1395
GlyphClass: 2
Flags: HW
LayerCount: 2
Fore
SplineSet
667 -399 m 0
 329 -399 108 -226 108 105 c 0
 108 241 141 381 206 525 c 1
 316 492 l 1
 278 367 259 254 259 153 c 0
 259 -95 397 -219 674 -219 c 0
 990 -219 1147 -54 1147 123 c 0
 1147 198 1106 313 1024 468 c 1
 1120 615 l 2
 1137 640 1151 622 1171 586 c 0
 1257 423 1301 274 1301 140 c 0
 1301 -116 1151 -399 667 -399 c 0
EndSplineSet
Substitution2: "'fina' Terminal Forms in Arabic lookup 9 subtable" uniFB9F
EndChar

StartChar: uni06F0
Encoding: 1776 1776 86
GlifName: uni06F_0
Width: 834
VWidth: 2311
GlyphClass: 2
Flags: HW
LayerCount: 2
Fore
SplineSet
417 416.505859375 m 132
 479.423828125 416.505859375 531.444335938 468.526367188 531.444335938 530.950195312 c 132
 531.444335938 593.374023438 479.423828125 645.39453125 417 645.39453125 c 132
 354.576171875 645.39453125 302.555664062 593.374023438 302.555664062 530.950195312 c 132
 302.555664062 468.526367188 354.576171875 416.505859375 417 416.505859375 c 132
417 297.711914062 m 128
 288.754882812 297.711914062 182.7265625 404.750976562 182.7265625 532.995117188 c 128
 182.7265625 661.240234375 288.754882812 769.288085938 417 769.288085938 c 128
 545.245117188 769.288085938 651.2734375 661.240234375 651.2734375 532.995117188 c 128
 651.2734375 404.750976562 545.245117188 297.711914062 417 297.711914062 c 128
EndSplineSet
PairPos2: "'kern' Horizontal Kerning lookup 0 subtable 6" uni06F7 dx=-40 dy=0 dh=-40 dv=0 dx=0 dy=0 dh=0 dv=0
PairPos2: "'kern' Horizontal Kerning lookup 0 subtable 6" uni06F6 dx=-40 dy=0 dh=-40 dv=0 dx=0 dy=0 dh=0 dv=0
PairPos2: "'kern' Horizontal Kerning lookup 0 subtable 6" uni06F4 dx=-40 dy=0 dh=-40 dv=0 dx=0 dy=0 dh=0 dv=0
PairPos2: "'kern' Horizontal Kerning lookup 0 subtable 6" uni06F3 dx=-40 dy=0 dh=-40 dv=0 dx=0 dy=0 dh=0 dv=0
PairPos2: "'kern' Horizontal Kerning lookup 0 subtable 6" uni06F2 dx=-40 dy=0 dh=-40 dv=0 dx=0 dy=0 dh=0 dv=0
EndChar

StartChar: uni06F4
Encoding: 1780 1780 90
GlifName: uni06F_4
Width: 1190
GlyphClass: 2
Flags: HW
LayerCount: 2
Fore
SplineSet
837 1191 m 0
 727 1191 649 1114 649 1000 c 0
 649 904 738 887 834 887 c 0
 897 887 967 899 1043 923 c 1
 1067 785 l 1
 985 736 896 716 801 716 c 0
 684 716 538 761 454 819 c 1
 496 621 517 401 517 140 c 0
 517 85 513 50 506 37 c 0
 503 32 466 21 394 2 c 1
 394 436 311 830 146 1207 c 1
 252 1339 l 2
 271 1362 286 1359 297 1329 c 0
 360 1150 408 1014 539 960 c 1
 527 1000 521 1038 521 1074 c 0
 521 1247 638 1350 797 1350 c 0
 886 1350 961 1311 1026 1233 c 1
 987 1159 l 1
 930 1181 881 1191 837 1191 c 0
EndSplineSet
PairPos2: "'kern' Horizontal Kerning lookup 0 subtable 6" uni06F8 dx=-70 dy=0 dh=-70 dv=0 dx=0 dy=0 dh=0 dv=0
PairPos2: "'kern' Horizontal Kerning lookup 0 subtable 6" uni06F5 dx=-70 dy=0 dh=-70 dv=0 dx=0 dy=0 dh=0 dv=0
EndChar

StartChar: uni06F5
Encoding: 1781 1781 91
GlifName: uni06F_5
Width: 1192
GlyphClass: 2
Flags: HW
LayerCount: 2
Fore
SplineSet
636 435 m 1
 676 265 738 179 824 179 c 0
 906 179 946 221 946 303 c 0
 945 491 819 720 567 1013 c 1
 355 688 248 458 248 300 c 0
 248 219 289 179 370 179 c 0
 458 179 524 265 566 436 c 1
 636 435 l 1
603 184 m 1
 556 57 476 0 362 0 c 0
 203 0 124 92 124 287 c 0
 124 521 236 795 458 1131 c 1
 413 1171 l 1
 501 1327 l 2
 512 1347 527 1347 544 1328 c 0
 896 953 1072 621 1072 307 c 0
 1072 99 996 0 844 0 c 0
 735 0 655 58 603 184 c 1
EndSplineSet
PairPos2: "'kern' Horizontal Kerning lookup 0 subtable 6" uni06F7 dx=-70 dy=0 dh=-70 dv=0 dx=0 dy=0 dh=0 dv=0
PairPos2: "'kern' Horizontal Kerning lookup 0 subtable 6" uni06F6 dx=-70 dy=0 dh=-70 dv=0 dx=0 dy=0 dh=0 dv=0
PairPos2: "'kern' Horizontal Kerning lookup 0 subtable 6" uni06F4 dx=-70 dy=0 dh=-70 dv=0 dx=0 dy=0 dh=0 dv=0
PairPos2: "'kern' Horizontal Kerning lookup 0 subtable 6" uni06F3 dx=-100 dy=0 dh=-100 dv=0 dx=0 dy=0 dh=0 dv=0
PairPos2: "'kern' Horizontal Kerning lookup 0 subtable 6" uni06F2 dx=-100 dy=0 dh=-100 dv=0 dx=0 dy=0 dh=0 dv=0
EndChar

StartChar: uni06F6
Encoding: 1782 1782 92
GlifName: uni06F_6
Width: 1041
GlyphClass: 2
Flags: HW
LayerCount: 2
Fore
SplineSet
540 1168 m 0
 357 1168 308 1029 308 970 c 0
 308 918 365 814 637 814 c 0
 656 814 679.701171875 837.020507812 713 857 c 0
 813 917 899 970 916 970 c 0
 935 970 931 951 926 931 c 2
 883 749 l 1
 710 688 454 424 216 -7 c 1
 137 67 l 2
 134 71 134 73 136 78 c 0
 249 332 382 525 478 649 c 5
 266 694 164 776 164 934 c 0
 164 1056 258 1355 532 1355 c 0
 629 1355 715 1314 793 1245 c 1
 745 1133 l 1
 655 1156 588 1168 540 1168 c 0
EndSplineSet
EndChar

StartChar: uniFB7B
Encoding: 64379 64379 101
GlifName: uniF_B_7B_
Width: 1339
GlyphClass: 2
Flags: HW
AnchorPoint: "Anchor-10" 660 1081 basechar 0
AnchorPoint: "Anchor-7" 701 -822 basechar 0
LayerCount: 2
Fore
SplineSet
654 -381.764648438 m 1
 529.96484375 -257.73046875 l 1
 654 -133.6953125 l 1
 778.03515625 -257.73046875 l 1
 654 -381.764648438 l 1
804.080078125 -159.3046875 m 1
 680.044921875 -35.26953125 l 1
 804.080078125 88.7646484375 l 1
 928.115234375 -35.26953125 l 1
 804.080078125 -159.3046875 l 1
503.919921875 -159.3046875 m 5
 379.884765625 -35.26953125 l 5
 503.919921875 88.7646484375 l 5
 627.955078125 -35.26953125 l 5
 503.919921875 -159.3046875 l 5
EndSplineSet
Refer: 173 65186 N 1 0 0 1 0 0 2
EndChar

StartChar: uniFB8F
Encoding: 64399 64399 107
GlifName: uniF_B_8F_
Width: 2103
GlyphClass: 2
Flags: HW
AnchorPoint: "Anchor-10" 1187 1413 basechar 0
AnchorPoint: "Anchor-7" 799 -206 basechar 0
LayerCount: 2
Fore
SplineSet
1136 1033 m 1
 1303 884 1477 705 1656 495 c 0
 1835 285 1969 181 2096 181 c 2
 2108 181 l 2
 2125 181 2133 155 2133 102 c 2
 2133 77 l 2
 2133 26 2125 0 2108 0 c 2
 2096 0 l 2
 1927 0 1779 107 1610 321 c 1
 1549 105 1170 2 809 2 c 4
 424 2 104 91 104 445 c 4
 104 528 123 632 170 727 c 5
 271 692 l 5
 249 613 244 563 244 514 c 4
 244 239 530 180 828 180 c 0
 1288 180 1484 330 1484 405 c 0
 1484 476 1308 659 956 955 c 1
 993 1143 l 1
 1765 1426 l 2
 1793 1436 1792.48242188 1432.78710938 1788 1403.70703125 c 2
 1764 1248 l 1
 1136 1033 l 1
EndSplineSet
EndChar

StartChar: uniFB93
Encoding: 64403 64403 111
GlifName: uniF_B_93
Width: 2054
GlyphClass: 2
Flags: HW
AnchorPoint: "Anchor-7" 799 -206 basechar 0
AnchorPoint: "Anchor-10" 1259 1563 basechar 0
LayerCount: 2
Fore
SplineSet
1138 973 m 1
 1263 867 1421 703 1610 482 c 0
 1785 277 1927 180 2051 180 c 2
 2059 180 l 2
 2076 180 2084 154 2084 102 c 2
 2084 77 l 2
 2084 26 2076 0 2059 0 c 2
 2046 0 l 2
 1889 0 1726 103 1558 310 c 1
 1445 97 1140 2 826 2 c 4
 427 2 104 85 104 447 c 4
 104 530 123 633 170 727 c 5
 271 692 l 5
 249 613 244 563 244 514 c 4
 244 284 440 179 799 179 c 4
 1196 179 1438 323 1438 403 c 0
 1438 474 1232 667 959 895 c 1
 995 1083 l 1
 1767 1366 l 2
 1795 1376 1794.48242188 1372.78710938 1790 1343.70703125 c 2
 1766 1188 l 1
 1138 973 l 1
EndSplineSet
Refer: 273 -1 N 1.1342 0 0 1.1342 962 -757 2
EndChar

StartChar: uniFB94
Encoding: 64404 64404 112
GlifName: uniF_B_94
Width: 934
GlyphClass: 2
Flags: HW
AnchorPoint: "Anchor-10" 337 1548 basechar 0
AnchorPoint: "Anchor-7" 334 -240 basechar 0
LayerCount: 2
Fore
SplineSet
218 973 m 1
 511 728 658 531 658 382 c 0
 658 136 467 0 68 0 c 2
 -5 0 l 2
 -42 0 -60 26 -60 77 c 2
 -60 102 l 2
 -60 154 -42 180 -5 180 c 2
 68 180 l 2
 297 180 514 229 514 378 c 0
 514 460 356 632 39 895 c 1
 75 1083 l 1
 847 1366 l 2
 875 1376 874.482421875 1372.78710938 870 1343.70703125 c 2
 846 1188 l 1
 218 973 l 1
EndSplineSet
Refer: 273 -1 N 1.1342 0 0 1.1342 42 -757 2
EndChar

StartChar: uniFB95
Encoding: 64405 64405 113
GlifName: uniF_B_95
Width: 1135
GlyphClass: 2
Flags: HW
AnchorPoint: "Anchor-10" 337 1548 basechar 0
AnchorPoint: "Anchor-7" 319 -241 basechar 0
LayerCount: 2
Fore
SplineSet
219 973 m 1
 336 871 495 707 689 482 c 0
 865 278 1006 180 1129 180 c 2
 1140 180 l 2
 1157 180 1165 154 1165 102 c 2
 1165 77 l 2
 1165 26 1157 0 1140 0 c 2
 1114 0 l 2
 970 0 817 100 653 301 c 1
 583 94 369 0 68 0 c 2
 -5 0 l 2
 -42 0 -60 26 -60 77 c 2
 -60 102 l 2
 -60 154 -42 180 -5 180 c 2
 68 180 l 2
 411 180 524 301 524 388 c 0
 524 458 363 626 39 895 c 1
 76 1083 l 1
 848 1366 l 2
 876 1376 875.482421875 1372.78710938 871 1343.70703125 c 2
 847 1188 l 1
 219 973 l 1
EndSplineSet
Refer: 273 -1 N 1.1342 0 0 1.1342 42 -757 2
EndChar

StartChar: uniFB9F
Encoding: 64415 64415 115
GlifName: uniF_B_9F_
Width: 1463
GlyphClass: 2
Flags: HW
AnchorPoint: "Anchor-10" 577 1006 basechar 0
AnchorPoint: "Anchor-7" 452 -1008 basechar 0
LayerCount: 2
Fore
SplineSet
1298 48 m 5
 1298 -331 1059 -539 667 -539 c 0
 329 -539 108 -366 108 -35 c 0
 108 101 141 241 206 385 c 1
 316 352 l 1
 278 227 259 114 259 13 c 0
 259 -235 397 -359 674 -359 c 0
 920 -359 1147 -247 1147 -17 c 0
 1147 60 1106 172 1024 328 c 1
 1120 475 l 2
 1138 503 1154 482 1171 446 c 0
 1205 375 1233 319 1257 279 c 0
 1297 213 1364 181 1437 181 c 6
 1468 181 l 2
 1485 181 1493 155 1493 102 c 2
 1493 77 l 2
 1493 26 1485 0 1468 0 c 2
 1447 0 l 6
 1382 0 1335 16 1298 48 c 5
EndSplineSet
EndChar

StartChar: uniFBE8
Encoding: 64488 64488 118
GlifName: uniF_B_E_8
Width: 646
GlyphClass: 2
Flags: HW
AnchorPoint: "Anchor-10" 323 1302 basechar 0
AnchorPoint: "Anchor-7" 371 -260 basechar 0
LayerCount: 2
Fore
SplineSet
545 384 m 4
 545 127 415 0 161 0 c 2
 -5 0 l 2
 -42 0 -60 26 -60 77 c 2
 -60 102 l 2
 -60 154 -42 180 -5 180 c 2
 158 180 l 2
 342 180 393 225 393 336 c 4
 393 396 369 482 321 616 c 1
 432 744 l 2
 442 756 454 747 467 719 c 0
 519 612 545 507 545 384 c 4
EndSplineSet
EndChar

StartChar: uniFBE9
Encoding: 64489 64489 119
GlifName: uniF_B_E_9
Width: 728
GlyphClass: 2
Flags: HW
AnchorPoint: "Anchor-10" 412 1159 basechar 0
AnchorPoint: "Anchor-7" 351 -219 basechar 0
LayerCount: 2
Fore
SplineSet
-5 180 m 6
 115 180 l 6
 274 180 358 231 368 334 c 6
 387 540 l 5
 502 540 l 5
 522 333 l 6
 532 231 583 180 714 180 c 6
 734 180 l 6
 750 180 758 154 758 102 c 6
 758 77 l 6
 758 26 750 0 734 0 c 6
 716 0 l 6
 576 0 499 43 444 130 c 5
 381 43 273 0 120 0 c 6
 -5 0 l 6
 -42 0 -60 26 -60 77 c 6
 -60 102 l 6
 -60 154 -42 180 -5 180 c 6
EndSplineSet
EndChar

StartChar: uniFE73
Encoding: 65139 65139 127
GlifName: uniF_E_73
Width: 785
GlyphClass: 2
Flags: HW
AnchorPoint: "Anchor-10" 369 1242 basechar 0
AnchorPoint: "Anchor-7" 377 -188 basechar 0
LayerCount: 2
Fore
SplineSet
309 464 m 2
 309 275 439 180 699 180 c 2
 790 180 l 1
 790 3 l 1
 686 3 l 2
 296 3 101 150 101 444 c 2
 101 481 l 1
 309 481 l 1
 309 464 l 2
EndSplineSet
EndChar

StartChar: uniFE8E
Encoding: 65166 65166 153
GlifName: uniF_E_8E_
Width: 511
GlyphClass: 2
Flags: HW
AnchorPoint: "Anchor-10" 188 1490 basechar 0
AnchorPoint: "Anchor-7" 240 -229 basechar 0
LayerCount: 2
Fore
SplineSet
288 552 m 4
 288 263 302 180 488 180 c 6
 517 180 l 6
 533 180 541 154 541 102 c 6
 541 77 l 6
 541 26 533 0 517 0 c 6
 483 0 l 6
 168 0 140 230 140 583 c 4
 140 954 128 1128 110 1309 c 5
 242 1396 l 6
 260 1408 270 1398 272 1367 c 4
 283 1220 288 818 288 552 c 4
EndSplineSet
EndChar

StartChar: uniFEA2
Encoding: 65186 65186 173
GlifName: uniF_E_A_2
Width: 1339
GlyphClass: 2
Flags: HW
AnchorPoint: "Anchor-10" 660 1081 basechar 0
AnchorPoint: "Anchor-7" 701 -822 basechar 0
LayerCount: 2
Fore
SplineSet
864 417 m 1
 555 350 270 159 270 -134 c 0
 270 -368 442 -485 786 -485 c 0
 903 -485 1029.40923523 -478.860117657 1165 -458 c 0
 1178 -456 1182.84960938 -470.379882812 1179 -479 c 2
 1136 -575 l 2
 1118.8188327 -613.357954908 1109 -634 1067 -640 c 0
 998.114878239 -649.84073168 911 -655 808 -655 c 0
 409 -655 123 -515 123 -164 c 0
 123 208 427 485 775 560 c 1
 652 591 454 628 389 628 c 0
 318 628 250 588 185 509 c 1
 99 549 l 1
 161 699 239 815 385 815 c 0
 464 815 559 786 673 751 c 0
 813 708 984 657 1203 636 c 0
 1215 635 1218 629 1213 616 c 2
 1144 453 l 1
 1096 452 1047 447 998 441 c 1
 1000 272 1133 180 1325 180 c 2
 1345 180 l 2
 1361 180 1369 154 1369 102 c 2
 1369 77 l 2
 1369 26 1361 0 1345 0 c 2
 1323 0 l 2
 1028 0 866 164 864 417 c 1
EndSplineSet
EndChar

StartChar: uniFEA3
Encoding: 65187 65187 174
GlifName: uniF_E_A_3
Width: 1320
GlyphClass: 2
Flags: HW
AnchorPoint: "Anchor-10" 555 1070 basechar 0
AnchorPoint: "Anchor-7" 521 -227 basechar 0
LayerCount: 2
Fore
SplineSet
221 446 m 1
 136 486 l 1
 208 666 310 768 457 768 c 0
 509 768 598 737 730 675 c 0
 942 576 1113 527 1243 526 c 0
 1261 526 1268 516 1262 496 c 2
 1217 345 l 1
 1111 342 951 280 737 158 c 0
 551 52 366 0 182 0 c 2
 -5 0 l 2
 -42 0 -60 26 -60 77 c 2
 -60 102 l 2
 -60 154 -42 180 -5 180 c 2
 216 180 l 2
 432 180 715 303 919 426 c 1
 881 434 790 466 645 524 c 0
 552 561 481 580 430 580 c 0
 364 580 294 535 221 446 c 1
EndSplineSet
EndChar

StartChar: uniFEA4
Encoding: 65188 65188 175
GlifName: uniF_E_A_4
Width: 1346
GlyphClass: 2
Flags: HW
AnchorPoint: "Anchor-10" 555 1070 basechar 0
AnchorPoint: "Anchor-7" 556 -224 basechar 0
LayerCount: 2
Fore
SplineSet
221 446 m 1
 136 486 l 1
 208 666 310 768 457 768 c 0
 509 768 598 737 730 675 c 0
 942 576 1113 527 1243 526 c 0
 1261 526 1268 516 1262 496 c 2
 1217 345 l 1
 1158 343 1082 324 989 285 c 1
 990 216 1039 180 1135 180 c 2
 1352 180 l 2
 1368 180 1376 154 1376 102 c 2
 1376 77 l 2
 1376 26 1368 0 1352 0 c 2
 1140 0 l 2
 976 0 886 80 876 234 c 1
 683 122 471 0 182 0 c 2
 -5 0 l 2
 -42 0 -60 26 -60 77 c 2
 -60 102 l 2
 -60 154 -42 180 -5 180 c 2
 216 180 l 2
 432 180 715 303 919 426 c 1
 881 434 790 466 645 524 c 0
 552 561 481 580 430 580 c 0
 364 580 294 535 221 446 c 1
EndSplineSet
EndChar

StartChar: uniFEAA
Encoding: 65194 65194 181
GlifName: uniF_E_A_A_
Width: 1122
GlyphClass: 2
Flags: HW
AnchorPoint: "Anchor-10" 621 1233 basechar 0
AnchorPoint: "Anchor-7" 440 -231 basechar 0
LayerCount: 2
Fore
SplineSet
820 191 m 1
 735 64 601 0 416 -0 c 0
 209 0 105 76 105 228 c 0
 105 261 110 297 119 337 c 1
 230 326 l 1
 230 312 l 2
 230 213 296 180 417 180 c 0
 574 180 736 211 736 334 c 0
 736 355 734 361 727 382 c 2
 565 845 l 1
 655 961 l 2
 674 985 688 982 699 949 c 2
 878 426 l 2
 934 262 1014 180 1116 180 c 2
 1128 180 l 2
 1144 180 1152 154 1152 102 c 2
 1152 77 l 2
 1152 26 1144 0 1128 0 c 2
 1112 0 l 2
 981 0 883 64 820 191 c 1
EndSplineSet
PairPos2: "'kern' Horizontal Kerning lookup 0 subtable 4" uniFB90 dx=-120 dy=0 dh=-120 dv=0 dx=0 dy=0 dh=0 dv=0
PairPos2: "'kern' Horizontal Kerning lookup 0 subtable 4" uni06A9 dx=-120 dy=0 dh=-120 dv=0 dx=0 dy=0 dh=0 dv=0
PairPos2: "'kern' Horizontal Kerning lookup 0 subtable 4" uniFB94 dx=-120 dy=0 dh=-120 dv=0 dx=0 dy=0 dh=0 dv=0
PairPos2: "'kern' Horizontal Kerning lookup 0 subtable 4" uni06AF dx=-120 dy=0 dh=-120 dv=0 dx=0 dy=0 dh=0 dv=0
EndChar

StartChar: uniFEAE
Encoding: 65198 65198 185
GlifName: uniF_E_A_E_
Width: 854
GlyphClass: 2
Flags: HW
AnchorPoint: "Anchor-7" 316 -678 basechar 0
AnchorPoint: "Anchor-10" 455 855 basechar 0
LayerCount: 2
Fore
SplineSet
664 47 m 1
 621 -393 176 -537 107 -537 c 0
 91 -537 73 -526 58 -508 c 2
 19 -459 l 2
 3 -437 -14 -409 16 -401 c 0
 311 -320 517 -156 517 71 c 0
 517 162 476 260 427 329 c 1
 550 497 l 1
 583 432 634 336 662 288 c 0
 703 216 759 180 829 180 c 2
 860 180 l 2
 876 180 884 154 884 102 c 2
 884 77 l 2
 884 26 876 0 860 0 c 2
 834 0 l 2
 770 0 708 18 664 47 c 1
EndSplineSet
PairPos2: "'kern' Horizontal Kerning lookup 0 subtable 3" uni06C0 dx=-128 dy=0 dh=-128 dv=0 dx=0 dy=0 dh=0 dv=0
PairPos2: "'kern' Horizontal Kerning lookup 0 subtable 3" uni0621 dx=-128 dy=0 dh=-128 dv=0 dx=0 dy=0 dh=0 dv=0
PairPos2: "'kern' Horizontal Kerning lookup 0 subtable 2" uni0648 dx=-43 dy=0 dh=-43 dv=0 dx=0 dy=0 dh=0 dv=0
PairPos2: "'kern' Horizontal Kerning lookup 0 subtable 0" uniFB58 dx=20 dy=0 dh=20 dv=0 dx=0 dy=0 dh=0 dv=0
PairPos2: "'kern' Horizontal Kerning lookup 0 subtable 0" uni0644 dx=-43 dy=0 dh=-43 dv=0 dx=0 dy=0 dh=0 dv=0
PairPos2: "'kern' Horizontal Kerning lookup 0 subtable 0" uni0642 dx=-43 dy=0 dh=-43 dv=0 dx=0 dy=0 dh=0 dv=0
PairPos2: "'kern' Horizontal Kerning lookup 0 subtable 0" uni0632 dx=-43 dy=0 dh=-43 dv=0 dx=0 dy=0 dh=0 dv=0
PairPos2: "'kern' Horizontal Kerning lookup 0 subtable 0" uni0631 dx=-43 dy=0 dh=-43 dv=0 dx=0 dy=0 dh=0 dv=0
PairPos2: "'kern' Horizontal Kerning lookup 0 subtable 0" uniFB8A dx=-43 dy=0 dh=-43 dv=0 dx=0 dy=0 dh=0 dv=0
PairPos2: "'kern' Horizontal Kerning lookup 0 subtable 0" uni0698 dx=-43 dy=0 dh=-43 dv=0 dx=0 dy=0 dh=0 dv=0
PairPos2: "'kern' Horizontal Kerning lookup 0 subtable 0" uniFB7C dx=-128 dy=0 dh=-128 dv=0 dx=0 dy=0 dh=0 dv=0
PairPos2: "'kern' Horizontal Kerning lookup 0 subtable 0" uni06CC dx=-43 dy=0 dh=-43 dv=0 dx=0 dy=0 dh=0 dv=0
PairPos2: "'kern' Horizontal Kerning lookup 0 subtable 0" uniFEEB dx=-128 dy=0 dh=-128 dv=0 dx=0 dy=0 dh=0 dv=0
PairPos2: "'kern' Horizontal Kerning lookup 0 subtable 0" uniFEDF dx=-128 dy=0 dh=-128 dv=0 dx=0 dy=0 dh=0 dv=0
PairPos2: "'kern' Horizontal Kerning lookup 0 subtable 0" uniFB90 dx=-213 dy=0 dh=-213 dv=0 dx=0 dy=0 dh=0 dv=0
PairPos2: "'kern' Horizontal Kerning lookup 0 subtable 0" uni06A9 dx=-213 dy=0 dh=-213 dv=0 dx=0 dy=0 dh=0 dv=0
PairPos2: "'kern' Horizontal Kerning lookup 0 subtable 0" uni0649 dx=-43 dy=0 dh=-43 dv=0 dx=0 dy=0 dh=0 dv=0
PairPos2: "'kern' Horizontal Kerning lookup 0 subtable 0" uni0647 dx=-128 dy=0 dh=-128 dv=0 dx=0 dy=0 dh=0 dv=0
PairPos2: "'kern' Horizontal Kerning lookup 0 subtable 0" uniFEE7 dx=-128 dy=0 dh=-128 dv=0 dx=0 dy=0 dh=0 dv=0
PairPos2: "'kern' Horizontal Kerning lookup 0 subtable 0" uniFEE3 dx=-128 dy=0 dh=-128 dv=0 dx=0 dy=0 dh=0 dv=0
PairPos2: "'kern' Horizontal Kerning lookup 0 subtable 0" uni0645 dx=-128 dy=0 dh=-128 dv=0 dx=0 dy=0 dh=0 dv=0
PairPos2: "'kern' Horizontal Kerning lookup 0 subtable 0" uniFEDB dx=-213 dy=0 dh=-213 dv=0 dx=0 dy=0 dh=0 dv=0
PairPos2: "'kern' Horizontal Kerning lookup 0 subtable 0" uniFED7 dx=-128 dy=0 dh=-128 dv=0 dx=0 dy=0 dh=0 dv=0
PairPos2: "'kern' Horizontal Kerning lookup 0 subtable 0" uniFED3 dx=-128 dy=0 dh=-128 dv=0 dx=0 dy=0 dh=0 dv=0
PairPos2: "'kern' Horizontal Kerning lookup 0 subtable 0" uni0641 dx=-128 dy=0 dh=-128 dv=0 dx=0 dy=0 dh=0 dv=0
PairPos2: "'kern' Horizontal Kerning lookup 0 subtable 0" uniFECF dx=-128 dy=0 dh=-128 dv=0 dx=0 dy=0 dh=0 dv=0
PairPos2: "'kern' Horizontal Kerning lookup 0 subtable 0" uniFECB dx=-128 dy=0 dh=-128 dv=0 dx=0 dy=0 dh=0 dv=0
PairPos2: "'kern' Horizontal Kerning lookup 0 subtable 0" uniFEC7 dx=-128 dy=0 dh=-128 dv=0 dx=0 dy=0 dh=0 dv=0
PairPos2: "'kern' Horizontal Kerning lookup 0 subtable 0" uni0638 dx=-128 dy=0 dh=-128 dv=0 dx=0 dy=0 dh=0 dv=0
PairPos2: "'kern' Horizontal Kerning lookup 0 subtable 0" uniFEC3 dx=-128 dy=0 dh=-128 dv=0 dx=0 dy=0 dh=0 dv=0
PairPos2: "'kern' Horizontal Kerning lookup 0 subtable 0" uni0637 dx=-128 dy=0 dh=-128 dv=0 dx=0 dy=0 dh=0 dv=0
PairPos2: "'kern' Horizontal Kerning lookup 0 subtable 0" uniFEBF dx=-128 dy=0 dh=-128 dv=0 dx=0 dy=0 dh=0 dv=0
PairPos2: "'kern' Horizontal Kerning lookup 0 subtable 0" uni0636 dx=-128 dy=0 dh=-128 dv=0 dx=0 dy=0 dh=0 dv=0
PairPos2: "'kern' Horizontal Kerning lookup 0 subtable 0" uniFEBB dx=-128 dy=0 dh=-128 dv=0 dx=0 dy=0 dh=0 dv=0
PairPos2: "'kern' Horizontal Kerning lookup 0 subtable 0" uni0635 dx=-128 dy=0 dh=-128 dv=0 dx=0 dy=0 dh=0 dv=0
PairPos2: "'kern' Horizontal Kerning lookup 0 subtable 0" uniFEB7 dx=-128 dy=0 dh=-128 dv=0 dx=0 dy=0 dh=0 dv=0
PairPos2: "'kern' Horizontal Kerning lookup 0 subtable 0" uni0634 dx=-128 dy=0 dh=-128 dv=0 dx=0 dy=0 dh=0 dv=0
PairPos2: "'kern' Horizontal Kerning lookup 0 subtable 0" uniFEB3 dx=-128 dy=0 dh=-128 dv=0 dx=0 dy=0 dh=0 dv=0
PairPos2: "'kern' Horizontal Kerning lookup 0 subtable 0" uni0633 dx=-128 dy=0 dh=-128 dv=0 dx=0 dy=0 dh=0 dv=0
PairPos2: "'kern' Horizontal Kerning lookup 0 subtable 0" uni0630 dx=-128 dy=0 dh=-128 dv=0 dx=0 dy=0 dh=0 dv=0
PairPos2: "'kern' Horizontal Kerning lookup 0 subtable 0" uni062F dx=-128 dy=0 dh=-128 dv=0 dx=0 dy=0 dh=0 dv=0
PairPos2: "'kern' Horizontal Kerning lookup 0 subtable 0" uniFEA7 dx=-128 dy=0 dh=-128 dv=0 dx=0 dy=0 dh=0 dv=0
PairPos2: "'kern' Horizontal Kerning lookup 0 subtable 0" uniFEA3 dx=-128 dy=0 dh=-128 dv=0 dx=0 dy=0 dh=0 dv=0
PairPos2: "'kern' Horizontal Kerning lookup 0 subtable 0" uniFE9F dx=-128 dy=0 dh=-128 dv=0 dx=0 dy=0 dh=0 dv=0
PairPos2: "'kern' Horizontal Kerning lookup 0 subtable 0" uniFE9B dx=-128 dy=0 dh=-128 dv=0 dx=0 dy=0 dh=0 dv=0
PairPos2: "'kern' Horizontal Kerning lookup 0 subtable 0" uni062B dx=-128 dy=0 dh=-128 dv=0 dx=0 dy=0 dh=0 dv=0
PairPos2: "'kern' Horizontal Kerning lookup 0 subtable 0" uniFE97 dx=-128 dy=0 dh=-128 dv=0 dx=0 dy=0 dh=0 dv=0
PairPos2: "'kern' Horizontal Kerning lookup 0 subtable 0" uni062A dx=-128 dy=0 dh=-128 dv=0 dx=0 dy=0 dh=0 dv=0
PairPos2: "'kern' Horizontal Kerning lookup 0 subtable 0" uni0629 dx=-128 dy=0 dh=-128 dv=0 dx=0 dy=0 dh=0 dv=0
PairPos2: "'kern' Horizontal Kerning lookup 0 subtable 0" uni0628 dx=-128 dy=0 dh=-128 dv=0 dx=0 dy=0 dh=0 dv=0
PairPos2: "'kern' Horizontal Kerning lookup 0 subtable 0" uni0627 dx=-150 dy=0 dh=-150 dv=0 dx=0 dy=0 dh=0 dv=0
PairPos2: "'kern' Horizontal Kerning lookup 0 subtable 0" uni0622 dx=-150 dy=0 dh=-150 dv=0 dx=0 dy=0 dh=0 dv=0
PairPos2: "'kern' Horizontal Kerning lookup 0 subtable 0" uniFB94 dx=-235 dy=0 dh=-235 dv=0 dx=0 dy=0 dh=0 dv=0
PairPos2: "'kern' Horizontal Kerning lookup 0 subtable 0" uni06AF dx=-235 dy=0 dh=-235 dv=0 dx=0 dy=0 dh=0 dv=0
PairPos2: "'kern' Horizontal Kerning lookup 0 subtable 0" uniFB56 dx=-128 dy=0 dh=-128 dv=0 dx=0 dy=0 dh=0 dv=0
PairPos2: "'kern' Horizontal Kerning lookup 0 subtable 0" uni067E dx=-128 dy=0 dh=-128 dv=0 dx=0 dy=0 dh=0 dv=0
EndChar

StartChar: uniFEB2
Encoding: 65202 65202 189
GlifName: uniF_E_B_2
Width: 2453
GlyphClass: 2
Flags: HW
AnchorPoint: "Anchor-7" 666 -734 basechar 0
AnchorPoint: "Anchor-10" 1676 946 basechar 0
LayerCount: 2
Fore
SplineSet
1460 0 m 0
 1381 0 1327 16 1298 48 c 1
 1298 -338 1058 -539 667 -539 c 0
 329 -539 108 -366 108 -35 c 0
 108 101 141 241 206 385 c 1
 316 352 l 1
 278 227 259 114 259 13 c 0
 259 -235 397 -359 674 -359 c 0
 935 -359 1147 -239 1147 -17 c 0
 1147 60 1106 172 1024 328 c 1
 1120 475 l 2
 1138 503 1154 482 1171 446 c 0
 1205 375 1233 319 1257 279 c 0
 1296.26718432 213.554692794 1364 180 1458 180 c 0
 1562 180 1608.29213483 231.06741573 1618 333 c 2
 1636 522 l 1
 1749 522 l 1
 1766 332 l 2
 1775 231 1833 180 1941 180 c 0
 2034 180 2084 232 2091 335 c 2
 2105 540 l 1
 2223 540 l 1
 2239 335 l 2
 2247 231 2307 180 2440 180 c 2
 2460 180 l 2
 2476 180 2484 154 2484 102 c 2
 2484 77 l 2
 2484 26 2476 0 2460 0 c 2
 2439 0 l 2
 2290 0 2206 45 2166 136 c 1
 2123 45 2048 0 1939 0 c 0
 1822 0 1739 43 1692 129 c 1
 1627 43 1562 0 1460 0 c 0
EndSplineSet
EndChar

StartChar: uniFEB3
Encoding: 65203 65203 190
GlifName: uniF_E_B_3
Width: 1532
GlyphClass: 2
Flags: HW
AnchorPoint: "Anchor-10" 854 945 basechar 0
AnchorPoint: "Anchor-7" 815 -263 basechar 0
LayerCount: 2
Fore
SplineSet
1114 180 m 4
 1224 180 1280 233 1280 339 c 4
 1280 377 1253 468 1201 613 c 5
 1310 739 l 6
 1321 752 1334 745 1348 716 c 4
 1403 596 1431 483 1431 375 c 4
 1431 188 1302 0 1123 -0 c 4
 1001 0 916 43 869 129 c 1
 804 43 721 0 619 0 c 0
 506 0 425 43 378 129 c 1
 322 43 220 0 72 0 c 2
 -5 0 l 2
 -42 0 -60 26 -60 77 c 2
 -60 102 l 2
 -60 154 -42 180 -5 180 c 2
 77 180 l 2
 223 180 301 231 310 332 c 2
 327 523 l 1
 441 523 l 1
 458 334 l 2
 467 231 522 180 624 180 c 0
 729 180 786 230 795 331 c 2
 813 522 l 1
 926 522 l 1
 943 330 l 2
 952 230 1009 180 1114 180 c 4
EndSplineSet
EndChar

StartChar: uniFEB4
Encoding: 65204 65204 191
GlifName: uniF_E_B_4
Width: 1631
GlyphClass: 2
Flags: HW
AnchorPoint: "Anchor-10" 846 946 basechar 0
AnchorPoint: "Anchor-7" 864 -268 basechar 0
LayerCount: 2
Fore
SplineSet
1116 -0 m 0
 999 0 916 43 869 129 c 1
 804 43 721 0 619 0 c 0
 506 0 425 43 378 129 c 1
 322 43 220 0 72 0 c 2
 -5 0 l 2
 -42 0 -60 26 -60 77 c 2
 -60 102 l 2
 -60 154 -42 180 -5 180 c 2
 77 180 l 2
 224 180 301 230 310 331 c 2
 327 522 l 1
 441 522 l 1
 457 335 l 2
 466 232 522 180 625 180 c 0
 729 180 786 231 795 333 c 2
 813 522 l 1
 926 522 l 1
 943 332 l 2
 952 231 1010 180 1118 180 c 0
 1211 180 1261 232 1268 335 c 2
 1282 540 l 1
 1400 540 l 1
 1416 335 l 2
 1424 231 1484 180 1617 180 c 2
 1637 180 l 2
 1653 180 1661 154 1661 102 c 2
 1661 77 l 2
 1661 26 1653 0 1637 0 c 2
 1616 0 l 2
 1467 0 1383 45 1343 136 c 1
 1300 45 1225 0 1116 -0 c 0
EndSplineSet
EndChar

StartChar: uniFEBA
Encoding: 65210 65210 197
GlifName: uniF_E_B_A_
Width: 2651
GlyphClass: 2
Flags: HW
AnchorPoint: "Anchor-10" 2104 1098 basechar 0
AnchorPoint: "Anchor-7" 666 -734 basechar 0
LayerCount: 2
Fore
SplineSet
1298 48 m 1
 1298 -346 1058 -539 667 -539 c 0
 329 -539 108 -366 108 -35 c 0
 108 101 141 241 206 385 c 1
 316 352 l 1
 278 227 259 114 259 13 c 0
 259 -235 397 -359 674 -359 c 0
 920 -359 1147 -245 1147 -17 c 0
 1147 60 1106 172 1024 328 c 1
 1120 475 l 5
 1141 502 1152 483 1171 446 c 6
 1243 301 l 6
 1286 218 1358 181 1452 181 c 5
 1688 556 1927 743 2169 743 c 0
 2373 743 2502 606 2502 419 c 0
 2502 318 2474 239 2416 180 c 1
 2657 180 l 2
 2673 180 2681 154 2681 102 c 2
 2681 77 l 2
 2681 26 2673 0 2657 0 c 2
 2607 0 l 2
 2471 0 2358 23 2269 70 c 1
 2168 23 2023 0 1832 0 c 2
 1587 0 l 2
 1437 0 1341 16 1298 48 c 1
1602 181 m 1
 1843 181 l 2
 2141 181 2342 211 2342 400 c 0
 2342 505 2269 566 2156 566 c 0
 1998 566 1814 438 1602 181 c 1
EndSplineSet
EndChar

StartChar: uniFEBB
Encoding: 65211 65211 198
GlifName: uniF_E_B_B_
Width: 1685
GlyphClass: 2
Flags: HW
AnchorPoint: "Anchor-7" 879 -239 basechar 0
AnchorPoint: "Anchor-10" 1149 1120 basechar 0
LayerCount: 2
Fore
SplineSet
1252 743 m 0
 1456 743 1583 608 1583 419 c 0
 1583 139 1360 0 914 0 c 2
 670 0 l 2
 500 0 380 43 314 129 c 1
 257 43 162 0 28 0 c 2
 -5 0 l 2
 -42 0 -60 26 -60 77 c 2
 -60 102 l 2
 -60 154 -42 180 -5 180 c 2
 29 180 l 2
 153 180 222 231 234 334 c 2
 257 530 l 1
 372 530 l 1
 396 333 l 2
 407 242 453 191 535 181 c 1
 771 556 1010 743 1252 743 c 0
685 181 m 1
 926 181 l 2
 1179 181 1424 193 1424 400 c 0
 1424 505 1352 566 1239 566 c 0
 1081 566 897 438 685 181 c 1
EndSplineSet
EndChar

StartChar: uniFEBC
Encoding: 65212 65212 199
GlifName: uniF_E_B_C_
Width: 1733
GlyphClass: 2
Flags: HW
AnchorPoint: "Anchor-7" 879 -239 basechar 0
AnchorPoint: "Anchor-10" 1149 1120 basechar 0
LayerCount: 2
Fore
SplineSet
685 181 m 1
 926 181 l 2
 1224 181 1424 206 1424 400 c 0
 1424 505 1352 566 1239 566 c 0
 1081 566 897 438 685 181 c 1
1252 743 m 0
 1456 743 1585 606 1585 419 c 0
 1585 318 1556 239 1498 180 c 1
 1740 180 l 2
 1756 180 1764 154 1764 102 c 2
 1764 77 l 2
 1764 26 1756 0 1740 -0 c 2
 1690 -0 l 2
 1554 0 1442 23 1352 70 c 1
 1251 23 1105 0 914 -0 c 2
 670 -0 l 2
 500 0 380 43 314 129 c 1
 257 43 162 0 28 0 c 2
 -5 0 l 2
 -42 0 -60 26 -60 77 c 2
 -60 102 l 2
 -60 154 -42 180 -5 180 c 2
 29 180 l 2
 153 180 222 231 234 334 c 2
 257 530 l 1
 372 530 l 1
 396 333 l 2
 407 242 453 191 535 181 c 1
 771 556 1010 743 1252 743 c 0
EndSplineSet
EndChar

StartChar: uniFEC2
Encoding: 65218 65218 205
GlifName: uniF_E_C_2
Width: 1582
GlyphClass: 2
Flags: HW
AnchorPoint: "Anchor-10" 468 1490 basechar 0
AnchorPoint: "Anchor-7" 683 -220 basechar 0
LayerCount: 2
Fore
SplineSet
220 0 m 1
 108 155 l 2
 100 164 105 181 124 181 c 2
 393 181 l 1
 416 215 440 248 462 282 c 1
 462 496 420 1133 399 1310 c 1
 549 1397 l 2
 566 1407 575 1399 575 1372 c 2
 591 451 l 1
 758 647 930 745 1107 745 c 0
 1308 745 1437 602 1437 418 c 0
 1437 316 1409 237 1352 180 c 1
 1589 180 l 2
 1605 180 1613 155 1613 103 c 2
 1613 78 l 2
 1613 27 1605 1 1589 1 c 2
 1539 1 l 2
 1430 1 1318 24 1203 71 c 1
 1103 24 955 0 759 0 c 2
 220 0 l 1
1277 400 m 0
 1277 506 1207 566 1093 566 c 0
 936 566 751 438 539 181 c 1
 770 181 l 2
 1075 181 1277 204 1277 400 c 0
EndSplineSet
EndChar

StartChar: uniFEC3
Encoding: 65219 65219 206
GlifName: uniF_E_C_3
Width: 1296
GlyphClass: 2
Flags: HW
AnchorPoint: "Anchor-10" 218 1490 basechar 0
AnchorPoint: "Anchor-7" 483 -230 basechar 0
LayerCount: 2
Fore
SplineSet
1035 400 m 0
 1035 505 963 566 850 566 c 0
 692 566 508 438 296 181 c 1
 537 181 l 2
 835 181 1035 208 1035 400 c 0
-5 0 m 2
 -42 0 -60 26 -60 77 c 2
 -60 102 l 2
 -60 154 -42 180 -5 180 c 10
 150 180 l 1
 172 214 195 248 219 282 c 1
 218 372 198 921 156 1310 c 1
 306 1397 l 2
 323 1407 332 1399 332 1372 c 2
 348 451 l 1
 514 645 686 743 863 743 c 0
 1067 743 1194 608 1194 419 c 0
 1194 139 974 0 535 0 c 2
 -5 0 l 2
EndSplineSet
EndChar

StartChar: uniFEC4
Encoding: 65220 65220 207
GlifName: uniF_E_C_4
Width: 1339
GlyphClass: 2
Flags: HW
AnchorPoint: "Anchor-10" 218 1490 basechar 0
AnchorPoint: "Anchor-7" 476 -225 basechar 0
LayerCount: 2
Fore
SplineSet
-5 0 m 2
 -42 0 -60 26 -60 77 c 2
 -60 102 l 2
 -60 154 -42 180 -5 180 c 2
 150 180 l 1
 172 214 195 248 219 282 c 1
 218 372 198 921 156 1310 c 1
 306 1397 l 2
 323 1407 332 1399 332 1372 c 2
 348 451 l 1
 514 645 686 743 863 743 c 0
 1067 743 1194 608 1194 419 c 0
 1194 325 1167 245 1112 181 c 1
 1345 181 l 2
 1361 181 1369 155 1369 103 c 2
 1369 78 l 2
 1369 27 1361 1 1345 1 c 2
 1295 1 l 2
 1185 1 1074 25 960 72 c 1
 854 25 712 0 535 0 c 2
 -5 0 l 2
1035 400 m 0
 1035 505 963 566 850 566 c 0
 692 566 508 438 296 181 c 1
 537 181 l 2
 835 181 1035 208 1035 400 c 0
EndSplineSet
EndChar

StartChar: uniFECA
Encoding: 65226 65226 213
GlifName: uniF_E_C_A_
Width: 1263
GlyphClass: 2
Flags: HW
AnchorPoint: "Anchor-7" 701 -822 basechar 0
AnchorPoint: "Anchor-10" 644 1193 basechar 0
LayerCount: 2
Fore
SplineSet
684 813 m 0
 897 813 1004 769 1004 669 c 0
 1004 593 948 513 827 428 c 1
 867 264 1001 181 1229 180 c 2
 1269 180 l 2
 1285 180 1293 154 1293 102 c 2
 1293 77 l 2
 1293 26 1285 0 1269 0 c 2
 1233 0 l 2
 920 0 754 125 712 379 c 1
 432 287 250 120 250 -130 c 0
 250 -367 422 -485 766 -485 c 0
 883 -485 1009.40923523 -478.860117657 1145 -458 c 0
 1158 -456 1164.01660156 -469.006835938 1160 -478 c 2
 1116 -575 l 2
 1097.15714488 -617.505975498 1090 -634 1047 -640 c 0
 978.083189348 -649.616299161 891 -655 788 -655 c 0
 386 -655 103 -516 103 -158 c 0
 103 187 376 432 650 537 c 1
 619 600 514 634 340 634 c 1
 340 750 l 1
 412 795 527 813 684 813 c 0
EndSplineSet
EndChar

StartChar: uniFECB
Encoding: 65227 65227 214
GlifName: uniF_E_C_B_
Width: 1023
GlyphClass: 2
Flags: HW
AnchorPoint: "Anchor-10" 486 1172 basechar 0
AnchorPoint: "Anchor-7" 468 -231 basechar 0
LayerCount: 2
Fore
SplineSet
145 430 m 0
 145 662 320 841 539 841 c 4
 651 841 747 800 830 719 c 1
 784 598 l 1
 684 637 608 656 555 656 c 0
 397 656 284 504 284 448 c 0
 284 381 362 310 504 221 c 1
 884 313 l 2
 913 320 926 313 922 291 c 2
 897 146 l 1
 571 50 300 1 83 0 c 2
 -5 0 l 2
 -42 0 -60 26 -60 77 c 2
 -60 102 l 2
 -60 154 -42 180 -5 180 c 2
 286 180 l 1
 192 251 145 334 145 430 c 0
EndSplineSet
EndChar

StartChar: uniFECC
Encoding: 65228 65228 215
GlifName: uniF_E_C_C_
Width: 959
GlyphClass: 2
Flags: HW
AnchorPoint: "Anchor-10" 503 1048 basechar 0
AnchorPoint: "Anchor-7" 459 -231 basechar 0
LayerCount: 2
Fore
SplineSet
518 679 m 4
 729 679 831 638 831 547 c 4
 831 486 775 406 655 306 c 5
 712 222 782 180 923 180 c 6
 965 180 l 6
 981 180 989 154 989 102 c 6
 989 77 l 6
 989 26 981 0 965 0 c 6
 920 0 l 6
 768 0 666 57 561 178 c 5
 425 58 271 1 92 0 c 6
 -5 0 l 6
 -42 0 -60 26 -60 77 c 6
 -60 102 l 6
 -60 154 -42 180 -5 180 c 6
 94 180 l 6
 289 180 422 216 493 309 c 5
 482 415 365 485 175 498 c 5
 175 609 l 5
 251 655 366 679 518 679 c 4
EndSplineSet
EndChar

StartChar: uniFEDA
Encoding: 65242 65242 229
GlifName: uniF_E_D_A_
Width: 1936
GlyphClass: 2
Flags: HW
AnchorPoint: "Anchor-10" 970 1325 basechar 0
AnchorPoint: "Anchor-7" 881 -205 basechar 0
LayerCount: 2
Fore
SplineSet
891 658 m 0
 965 658 1076 675 1076 734 c 0
 1076 764 1031 788 940 808 c 0
 827 832 771 897 771 1005 c 0
 771 1133 878 1207 1089 1236 c 0
 1123 1242 1142 1231 1132 1201 c 2
 1096 1097 l 1
 933 1081 850 1047 850 997 c 0
 850 967 895 944 986 928 c 0
 1104 907 1166 851 1166 734 c 0
 1166 588 1043 520 887 520 c 0
 810 520 745 531 671 555 c 1
 684 696 l 1
 756 671 825 658 891 658 c 0
1580 563 m 0
 1580 781 1579 935 1538 1289 c 1
 1685 1403 l 2
 1706 1420 1722 1418 1722 1380 c 2
 1723 550 l 2
 1723 305 1786 181 1913 180 c 1
 1942 180 l 2
 1958 180 1966 154 1966 102 c 2
 1966 77 l 2
 1966 26 1958 0 1942 0 c 2
 1913 0 l 1
 1783 1 1695 73 1645 217 c 1
 1573 74 1294 2 809 2 c 4
 424 2 104 91 104 445 c 4
 104 528 123 632 170 727 c 5
 271 692 l 5
 249 613 244 563 244 514 c 4
 244 258 487 180 823 180 c 0
 1107 180 1377 212 1537 300 c 0
 1565 316 1580 404 1580 563 c 0
EndSplineSet
EndChar

StartChar: uniFEDB
Encoding: 65243 65243 230
GlifName: uniF_E_D_B_
Width: 931
GlyphClass: 2
Flags: HW
AnchorPoint: "Anchor-7" 335 -253 basechar 0
AnchorPoint: "Anchor-10" 269 1443 basechar 0
LayerCount: 2
Fore
SplineSet
-5 0 m 2
 -42 0 -60 26 -60 77 c 2
 -60 102 l 2
 -60 154 -42 180 -5 180 c 2
 137 180 l 2
 362 180 558 253 558 380 c 0
 558 478 381 666 39 955 c 1
 76 1143 l 1
 848 1426 l 2
 875.916992188 1436.22558594 875.482233993 1432.78683744 871 1403.70703125 c 2
 847 1248 l 1
 219 1033 l 1
 539 746 698 538 698 385 c 0
 698 108 439 0 137 0 c 2
 -5 0 l 2
EndSplineSet
EndChar

StartChar: uniFEDC
Encoding: 65244 65244 231
GlifName: uniF_E_D_C_
Width: 1191
GlyphClass: 2
Flags: HW
AnchorPoint: "Anchor-7" 335 -253 basechar 0
AnchorPoint: "Anchor-10" 269 1443 basechar 0
LayerCount: 2
Fore
SplineSet
219 1033 m 1
 422 849 599 667 749 487 c 0
 920 282 1055 180 1188 180 c 2
 1197 180 l 2
 1213 180 1221 154 1221 102 c 2
 1221 77 l 2
 1221 26 1213 0 1197 0 c 2
 1184 0 l 2
 1012 0 866 105 707 316 c 1
 627 148 514 0 135 0 c 2
 -5 0 l 2
 -42 0 -60 26 -60 77 c 2
 -60 102 l 2
 -60 154 -42 180 -5 180 c 2
 136 180 l 2
 378 180 568 255 568 405 c 0
 568 483 391 657 39 955 c 1
 76 1143 l 1
 848 1426 l 2
 876 1436 875.482421875 1432.78710938 871 1403.70703125 c 2
 847 1248 l 1
 219 1033 l 1
EndSplineSet
EndChar

StartChar: uniFEDE
Encoding: 65246 65246 233
GlifName: uniF_E_D_E_
Width: 1399
GlyphClass: 2
Flags: HW
AnchorPoint: "Anchor-10" 587 1004 basechar 0
AnchorPoint: "Anchor-7" 617 -751 basechar 0
LayerCount: 2
Fore
SplineSet
649 -539 m 0
 319 -539 107 -348 107 -25 c 0
 107 101 141 238 210 385 c 1
 320 352 l 1
 280 223 260 113 260 19 c 0
 260 -233 392 -359 655 -359 c 0
 925 -359 1051 -241 1051 38 c 4
 1051 338 1008 1141 992 1303 c 5
 1137 1390 l 6
 1156 1401 1165 1395 1166 1372 c 6
 1189 362 l 6
 1192 241 1256 180 1381 180 c 6
 1405 180 l 6
 1421 180 1429 154 1429 102 c 6
 1429 77 l 6
 1429 26 1421 0 1405 0 c 6
 1382 0 l 6
 1283 0 1221 19 1194 59 c 5
 1193 -340 999 -539 649 -539 c 0
EndSplineSet
EndChar

StartChar: uniFEDF
Encoding: 65247 65247 234
GlifName: uniF_E_D_F_
Width: 556
GlyphClass: 2
Flags: HW
AnchorPoint: "Anchor-10" 268 1490 basechar 0
AnchorPoint: "Anchor-7" 183 -251 basechar 0
LayerCount: 2
Fore
SplineSet
-5 180 m 2
 37 180 l 2
 253 180 269 212 269 449 c 0
 269 670 250 876 207 1303 c 1
 344 1383 l 2
 368 1397 380 1391 381 1366 c 0
 395 1062 412 631 412 462 c 0
 412 137 341 0 31 0 c 2
 -5 0 l 2
 -42 0 -60 26 -60 77 c 2
 -60 102 l 2
 -60 154 -42 180 -5 180 c 2
EndSplineSet
EndChar

StartChar: uniFEE0
Encoding: 65248 65248 235
GlifName: uniF_E_E_0
Width: 651
GlyphClass: 2
Flags: HW
AnchorPoint: "Anchor-10" 328 1490 basechar 0
AnchorPoint: "Anchor-7" 304 -248 basechar 0
LayerCount: 2
Fore
SplineSet
-5 180 m 2
 60 180 l 2
 243 180 289 299 289 480 c 0
 289 665 269 1023 253 1304 c 1
 402 1393 l 2
 419 1403 427 1396 427 1372 c 2
 427 431 l 2
 427 264 481 180 627 180 c 2
 657 180 l 2
 673 180 681 154 681 102 c 2
 681 77 l 2
 681 26 673 0 657 0 c 2
 626 0 l 2
 488 0 407 49 344 148 c 1
 267 49 175 0 66 0 c 2
 -5 0 l 2
 -42 0 -60 26 -60 77 c 2
 -60 102 l 2
 -60 154 -42 180 -5 180 c 2
EndSplineSet
EndChar

StartChar: uniFEE2
Encoding: 65250 65250 237
GlifName: uniF_E_E_2
Width: 1249
GlyphClass: 2
Flags: HW
AnchorPoint: "Anchor-10" 612 1045 basechar 0
AnchorPoint: "Anchor-7" 222 -778 basechar 0
LayerCount: 2
Fore
SplineSet
787 -10 m 0
 865 -10 926 37 926 121 c 0
 926 162.241408126 901.281481409 204.965062707 843 245.427734375 c 6
 629 394 l 1
 627 317 627 252 627 163 c 0
 627 48 680 -10 787 -10 c 0
1244 180 m 2
 1255 180 l 2
 1271 180 1279 154 1279 102 c 2
 1279 77 l 2
 1279 26 1271 0 1255 0 c 2
 1248 0 l 2
 1174 0 1110 25 1057 76 c 1
 1004 -103 910 -193 775 -193 c 0
 587 -193 492 -76 491 158 c 0
 491 209 492 261 493 312 c 1
 374 276 291 218 247 144 c 1
 261 -479 l 2
 262 -521 229 -578 161 -649 c 0
 137 -673 118 -676 116 -629 c 0
 108 -438 101 -233 101 -19 c 0
 101 237 221 452 517 493 c 1
 534 592 551 676 592 645 c 2
 1099 257 l 2
 1165 206 1213 180 1244 180 c 2
EndSplineSet
EndChar

StartChar: uniFEE3
Encoding: 65251 65251 238
GlifName: uniF_E_E_3
Width: 1028
GlyphClass: 2
Flags: HW
AnchorPoint: "Anchor-10" 576 1031 basechar 0
AnchorPoint: "Anchor-7" 537 -249 basechar 0
LayerCount: 2
Fore
SplineSet
-5 0 m 2
 -42 0 -60 26 -60 77 c 2
 -60 102 l 2
 -60 154 -42 180 -5 180 c 2
 21 180 l 2
 83 180 149 223 296 425 c 0
 410 582 504 694 626 694 c 0
 812 694 927 445 927 290 c 0
 927 94 792 -21 710 -21 c 0
 618 -21 487 46 316 180 c 1
 225 60 110 0 12 0 c 2
 -5 0 l 2
695 174 m 0
 753 174 792 219 792 279 c 0
 792 371 697 509 625 509 c 0
 568 509 498 449 416 330 c 1
 537 226 630 174 695 174 c 0
EndSplineSet
EndChar

StartChar: uniFEE4
Encoding: 65252 65252 239
GlifName: uniF_E_E_4
Width: 1135
GlyphClass: 2
Flags: HW
AnchorPoint: "Anchor-10" 576 971 basechar 0
AnchorPoint: "Anchor-7" 537 -277 basechar 0
LayerCount: 2
Fore
SplineSet
416 285 m 1
 527 188 615 140 678 140 c 0
 749 140 784 177 784 251 c 0
 784 341 697 459 611 459 c 0
 561 459 496 401 416 285 c 1
-5 180 m 2
 31 180 l 2
 115 180 163 215 295 381 c 0
 455 583 524 633 622 633 c 0
 773 633 869 459 945 302 c 0
 984 221 1036 180 1123 180 c 2
 1141 180 l 2
 1157 180 1165 154 1165 102 c 2
 1165 77 l 2
 1165 26 1157 0 1141 0 c 2
 1123 0 l 2
 1028 0 957 37 888 111 c 1
 828 5 761 -50 687 -50 c 0
 595 -50 468 14 306 140 c 1
 232 47 140 0 32 0 c 2
 -5 0 l 2
 -42 0 -60 26 -60 77 c 2
 -60 102 l 2
 -60 154 -42 180 -5 180 c 2
EndSplineSet
EndChar

StartChar: uniFEEA
Encoding: 65258 65258 245
GlifName: uniF_E_E_A_
Width: 1016
GlyphClass: 2
Flags: HW
AnchorPoint: "Anchor-10" 587 1169 basechar 0
AnchorPoint: "Anchor-7" 445 -238 basechar 0
LayerCount: 2
Fore
SplineSet
504 328 m 0x70
 551 328 607 331 655 333 c 1
 588 633 l 1
 393 572 227 511 227 422 c 0
 227 350 338 328 504 328 c 0x70
1022 0 m 2xb0
 990 0 l 2xb0
 842 0 736 79 680 237 c 1
 512 135 l 1x70
 259 139 122 181 102 261 c 0
 96 285 92 329 92 386 c 0
 92 590 246 697 548 800 c 1
 533 867 l 1
 623 966 l 2
 651.279038523 997.813918338 664 988 675 933 c 2
 782 405 l 2
 812 255 882 180 991 180 c 2
 1022 180 l 2
 1038 180 1046 154 1046 102 c 2
 1046 77 l 2
 1046 26 1038 0 1022 0 c 2xb0
EndSplineSet
EndChar

StartChar: uniFEEB
Encoding: 65259 65259 246
GlifName: uniF_E_E_B_
Width: 1246
GlyphClass: 2
Flags: HW
AnchorPoint: "Anchor-10" 558 1341 basechar 0
AnchorPoint: "Anchor-7" 546 -214 basechar 0
LayerCount: 2
Fore
SplineSet
672 601 m 4
 672 672 612 721 526 721 c 4
 396 721 304 548 304 488 c 4
 304 409 441 358 525 337 c 5
 596 384 672 495 672 601 c 4
793 619 m 5
 793 485 756 383 664 288 c 5
 781 247 875 225 946 221 c 5
 988 291 1010 352 1010 403 c 4
 1010 501 928 555 793 619 c 5
887 59 m 4
 824 59 703 87 522 142 c 5
 376 47 225 0 68 0 c 6
 -5 0 l 6
 -42 0 -60 26 -60 77 c 6
 -60 102 l 6
 -60 154 -42 180 -5 180 c 4
 210 180 296 189 368 215 c 5
 234 264 163 344 163 453 c 4
 163 599 271 747 409 830 c 5
 303 874 l 5
 365 1047 l 5
 721 877 l 6
 1003.54603106 742.076333483 1146 590 1146 417 c 4
 1146 269 1037 59 887 59 c 4
EndSplineSet
EndChar

StartChar: uniFEEC
Encoding: 65260 65260 247
GlifName: uniF_E_E_C_
Width: 918
GlyphClass: 2
Flags: HW
AnchorPoint: "Anchor-7" 508 -728 basechar 0
AnchorPoint: "Anchor-10" 472 1093 basechar 0
LayerCount: 2
Fore
SplineSet
321 183 m 1
 531 190 606 247 606 355 c 0
 606 421 539 534 453 619 c 1
 382 508 335 324 321 183 c 1
727 396 m 4
 727 157 574 24 333 -1 c 1
 361 -96 455 -230 558.091796875 -294.587890625 c 1
 562.447265625 33.4228515625 694 180 901 180 c 2
 924 180 l 2
 940 180 948 154 948 102 c 2
 948 77 l 2
 948 26 940 0 924 0 c 2
 894 0 l 2
 750.412109375 0 688.890625 -68.00390625 688.890625 -164.76953125 c 0
 688.890625 -228.71875 711.391601562 -309.595703125 744.693359375 -401.848632812 c 1
 621.176757812 -532.514648438 l 1
 385 -406 269 -218 202 0 c 1
 -5 0 l 2
 -42 0 -60 26 -60 77 c 2
 -60 102 l 2
 -60 154 -42 180 -5 180 c 2
 194 180 l 1
 221 492 376 821 469 821 c 0
 512 821 727 619 727 396 c 4
EndSplineSet
EndChar

StartChar: uniFEEE
Encoding: 65262 65262 249
GlifName: uniF_E_E_E_
Width: 816
GlyphClass: 2
Flags: HW
AnchorPoint: "Anchor-10" 385 994 basechar 0
AnchorPoint: "Anchor-7" 356 -678 basechar 0
LayerCount: 2
Fore
SplineSet
412 180 m 0
 482 180 510 180 564 181 c 1
 552 331 511 491 385 491 c 0
 300 491 241 383 241 278 c 0
 241 186 320 180 412 180 c 0
61 -402 m 1
 345 -323 510 -190 555 0 c 1
 242 0 95 28 95 239 c 0
 95 431 200 668 392 668 c 0
 611 668 704 433 708 180 c 1
 822 180 l 2
 838 180 846 154 846 102 c 2
 846 77 l 2
 846 26 838 0 822 0 c 2
 699 0 l 1
 654 -280 433 -468 174 -535 c 0
 149 -542 129 -538 114 -520 c 2
 64 -460 l 2
 47 -440 31 -410 61 -402 c 1
EndSplineSet
EndChar

StartChar: uniFEFB
Encoding: 65275 65275 262
GlifName: uniF_E_F_B_
Width: 1197
GlyphClass: 3
Flags: HW
AnchorPoint: "Anchor-9" 205 1394 baselig 1
AnchorPoint: "Anchor-9" 918 1487.84 baselig 0
AnchorPoint: "Anchor-6" 899 -223 baselig 0
AnchorPoint: "Anchor-6" 281 -244 baselig 1
LayerCount: 2
Fore
SplineSet
602 197 m 1
 502 529 335 853 102 1169 c 1
 237 1270 l 2
 253 1282 260 1274 266 1264 c 0
 447 971 598 635 721 253 c 1
 858 330 905 407 905 564 c 0
 905 700 886 940 849 1305 c 1
 985 1389 l 2
 1011 1405 1023 1399 1025 1370 c 0
 1038 1122 1049 906 1049 644 c 0
 1049 147 781 -26 233 -26 c 1
 144 107 l 2
 134 122 135 130 147 130 c 0
 357 144 508 167 602 197 c 1
EndSplineSet
LCarets2: 1 0
Ligature2: "'rlig' Required Ligatures in Arabic lookup 16 subtable" uniFEDF uniFE8E
EndChar

StartChar: uniFEFC
Encoding: 65276 65276 263
GlifName: uniF_E_F_C_
Width: 1281
GlyphClass: 3
Flags: HW
AnchorPoint: "Anchor-6" 899 -223 baselig 0
AnchorPoint: "Anchor-6" 281 -244 baselig 1
AnchorPoint: "Anchor-9" 918 1487.84 baselig 0
AnchorPoint: "Anchor-9" 205 1394 baselig 1
LayerCount: 2
Fore
SplineSet
721 253 m 1
 858 333 906 448 906 628 c 0
 906 717 887 936 849 1304 c 1
 996 1391 l 2
 1014 1402 1024 1393 1025 1365 c 2
 1053 542 l 2
 1061 303 1126 183 1247 181 c 1
 1287 180 l 2
 1303 180 1311 154 1311 102 c 2
 1311 77 l 2
 1311 26 1303 0 1287 0 c 2
 1247 0 l 2
 1091 0 992 88 951 265 c 1
 825 72 585 -25 233 -26 c 1
 144 107 l 2
 134 122 135 130 147 130 c 0
 357 144 508 167 602 197 c 1
 502 529 335 853 102 1169 c 1
 237 1270 l 2
 246 1277 256 1280 265 1266 c 0
 445 972 597 636 721 253 c 1
EndSplineSet
LCarets2: 1 0
Ligature2: "'rlig' Required Ligatures in Arabic lookup 16 subtable" uniFEE0 uniFE8E
EndChar

StartChar: arabic_dot
Encoding: 65536 -1 264
GlifName: arabic_dot
Width: 233
GlyphClass: 2
Flags: HW
LayerCount: 2
Fore
SplineSet
116 268 m 1
 254 130 l 1
 116 -8 l 1
 -22 130 l 1
 116 268 l 1
EndSplineSet
EndChar

StartChar: arabic_2dots
Encoding: 65537 -1 265
GlifName: arabic_2dots
Width: 612
GlyphClass: 2
Flags: HW
LayerCount: 2
Fore
SplineSet
456 259 m 5
 589 126 l 5
 456 -7 l 5
 323 126 l 5
 456 259 l 5
156 259 m 1
 289 126 l 1
 156 -7 l 1
 23 126 l 1
 156 259 l 1
EndSplineSet
EndChar

StartChar: arabic_3dots
Encoding: 65538 -1 266
GlifName: arabic_3dots
Width: 590
GlyphClass: 2
Flags: HW
LayerCount: 2
Fore
SplineSet
295 451 m 5
 419 327 l 5
 295 203 l 5
 171 327 l 5
 295 451 l 5
445 226 m 1
 569 102 l 1
 445 -22 l 1
 321 102 l 1
 445 226 l 1
145 226 m 1
 269 102 l 1
 145 -22 l 1
 21 102 l 1
 145 226 l 1
EndSplineSet
EndChar

StartChar: arabic_3dots_a
Encoding: 65539 -1 267
GlifName: arabic_3dots_a
Width: 636
GlyphClass: 2
Flags: HW
LayerCount: 2
Fore
SplineSet
318 -210 m 5
 194 -86 l 5
 318 38 l 5
 442 -86 l 5
 318 -210 l 5
468 15 m 1
 344 139 l 1
 468 263 l 1
 592 139 l 1
 468 15 l 1
168 15 m 1
 44 139 l 1
 168 263 l 1
 292 139 l 1
 168 15 l 1
EndSplineSet
EndChar

StartChar: uni066E.fina
Encoding: 65540 -1 268
GlifName: uni066E_.fina
Width: 1942
GlyphClass: 2
Flags: HW
AnchorPoint: "Anchor-10" 1040 1793 basechar 0
AnchorPoint: "Anchor-7" 971 -376 basechar 0
LayerCount: 2
Fore
SplineSet
816 2 m 4
 426 2 104 88 104 445 c 4
 104 528 123 632 170 727 c 5
 271 692 l 5
 249 613 244 563 244 514 c 4
 244 258 488 181 815 181 c 4
 1510 181 1575 368 1591 542 c 1
 1707 529 l 1
 1704 495 1703 476 1703 437 c 0
 1703 266 1775 180 1921 180 c 2
 1948 180 l 2
 1964 180 1972 154 1972 102 c 2
 1972 77 l 2
 1972 26 1964 0 1948 0 c 2
 1929 0 l 2
 1745 0 1635 76 1599 226 c 1
 1486 77 1226 2 816 2 c 4
EndSplineSet
EndChar

StartChar: uni06A1.fina
Encoding: 65543 -1 269
GlifName: uni06A_1.fina
Width: 1893
GlyphClass: 2
Flags: HW
AnchorPoint: "Anchor-10" 746 1973 basechar 0
AnchorPoint: "Anchor-7" 933 -461 basechar 0
LayerCount: 2
Fore
SplineSet
1465 618 m 0
 1405 618 1312 536 1312 438 c 0
 1312 358 1428 251 1477 251 c 0
 1530 251 1623 380 1623 447 c 0
 1623 529 1527 618 1465 618 c 0
1296 199 m 1
 1209 266 1165 364 1165 469 c 0
 1165 636 1308 813 1470 813 c 0
 1627 813 1771 643 1771 473 c 0
 1771 360 1721 268 1619 191 c 1
 1678 180 1760 180 1864 180 c 2
 1899 180 l 2
 1915 180 1923 154 1923 102 c 2
 1923 77 l 2
 1923 26 1915 0 1899 0 c 2
 1870 0 l 2
 1727 0 1592 19 1466 98 c 1
 1328 19 1112 2 817 2 c 4
 427 2 105 89 105 445 c 0
 105 528 124 632 171 727 c 1
 272 692 l 1
 250 613 245 563 245 514 c 0
 245 241 521 181 819 181 c 0
 1020 181 1178 182 1296 199 c 1
EndSplineSet
EndChar

StartChar: uni06A1.init
Encoding: 65544 -1 270
GlifName: uni06A_1.init
Width: 852
GlyphClass: 2
Flags: HW
AnchorPoint: "Anchor-10" 487 2032 basechar 0
AnchorPoint: "Anchor-7" 425 -374 basechar 0
LayerCount: 2
Fore
SplineSet
-5 180 m 2
 249 180 l 2
 527 180 606 250 606 394 c 5
 537 381 481 373 436 373 c 4
 250 375 140 423 140 586 c 4
 140 822 258 1022 431 1022 c 4
 664 1022 751 748 751 464 c 4
 751 69 544 0 253 0 c 2
 -5 0 l 2
 -42 0 -60 26 -60 77 c 2
 -60 102 l 2
 -60 154 -42 180 -5 180 c 2
432 551 m 4
 501 551 559 560 605 578 c 5
 594 712 550 833 428 833 c 4
 342 833 271 759 271 642 c 4
 271 573 351 551 432 551 c 4
EndSplineSet
EndChar

StartChar: uni06A1.medi
Encoding: 65545 -1 271
GlifName: uni06A_1.medi
Width: 907
GlyphClass: 2
Flags: HW
AnchorPoint: "Anchor-10" 435 1479 basechar 0
AnchorPoint: "Anchor-7" 409 -209 basechar 0
LayerCount: 2
Fore
SplineSet
-5 180 m 2
 28 180 l 2
 154 180 248 183 310 199 c 5
 223 266 179 364 179 469 c 4
 179 636 322 813 484 813 c 4
 641 813 785 643 785 473 c 4
 785 360 735 268 633 191 c 5
 692 180 774 180 878 180 c 6
 913 180 l 6
 929 180 937 154 937 102 c 6
 937 77 l 6
 937 26 929 0 913 0 c 6
 884 0 l 6
 741 0 606 19 480 98 c 5
 362 19 212 0 28 0 c 2
 -5 0 l 2
 -42 0 -60 26 -60 77 c 2
 -60 102 l 2
 -60 154 -42 180 -5 180 c 2
479 618 m 4
 419 618 326 536 326 438 c 4
 326 358 442 251 491 251 c 4
 544 251 637 380 637 447 c 4
 637 529 541 618 479 618 c 4
EndSplineSet
EndChar

StartChar: uni066F.fina
Encoding: 65546 -1 272
GlifName: uni066F_.fina
Width: 1409
GlyphClass: 2
Flags: HW
AnchorPoint: "Anchor-10" 460 754 basechar 0
AnchorPoint: "Anchor-7" 381 -884 basechar 0
LayerCount: 2
Fore
SplineSet
1033 179 m 0
 1070 179 1098 179 1154 181 c 1
 1144 324 1097 491 981 491 c 0
 857 491 831 331 831 278 c 0
 831 183 909 179 1033 179 c 0
693 238 m 0
 693 445 798 668 990 668 c 4
 1199 668 1288 432 1292 180 c 1
 1415 180 l 2
 1431 180 1439 154 1439 102 c 2
 1439 77 l 2
 1439 26 1431 0 1415 0 c 2
 1291 0 l 1
 1261 -359 1050 -539 656 -539 c 0
 322 -539 102 -363 102 -35 c 0
 102 101 135 241 200 385 c 1
 310 352 l 1
 272 227 253 114 253 13 c 0
 253 -235 391 -359 668 -359 c 0
 943 -359 1138 -263 1149 1 c 1
 1021 0 l 1
 811 0 693 53 693 238 c 0
EndSplineSet
EndChar

StartChar: arabic_gaf_bar
Encoding: 65550 -1 273
GlifName: arabic_gaf_bar
Width: 748
GlyphClass: 2
Flags: HW
LayerCount: 2
Fore
SplineSet
730 2059 m 6
 715 1981 l 5
 41 1736 l 5
 60 1835 l 5
 714 2078 l 6
 729 2083 734 2077 730 2059 c 6
EndSplineSet
EndChar

StartChar: guillemotleft
Encoding: 171 171 283
GlifName: guillemotleft
Width: 922
Flags: HW
LayerCount: 2
Fore
SplineSet
470 455 m 4
 470 541.462890625 514.44140625 709.192382812 695 910 c 5
 782 830 l 5
 639.251953125 645.877929688 619 523.509765625 619 456 c 4
 619 381.358398438 636.844726562 267.733398438 782 80 c 5
 695 0 l 5
 514.599609375 200.579101562 470 368.694335938 470 455 c 4
110 455 m 0
 110 541.462890625 154.44140625 709.192382812 335 910 c 1
 422 830 l 1
 279.251953125 645.877929688 259 523.509765625 259 456 c 0
 259 381.358398438 276.844726562 267.733398438 422 80 c 1
 335 0 l 1
 154.599609375 200.579101562 110 368.694335938 110 455 c 0
EndSplineSet
EndChar

StartChar: guillemotright
Encoding: 187 187 284
GlifName: guillemotright
Width: 922
Flags: HW
LayerCount: 2
Fore
SplineSet
452 455 m 0
 452 368.694335938 407.400390625 200.579101562 227 0 c 1
 140 80 l 1
 285.155273438 267.733398438 303 381.358398438 303 456 c 0
 303 523.509765625 282.748046875 645.877929688 140 830 c 1
 227 910 l 1
 407.55859375 709.192382812 452 541.462890625 452 455 c 0
812 455 m 4
 812 368.694335938 767.400390625 200.579101562 587 0 c 5
 500 80 l 5
 645.155273438 267.733398438 663 381.358398438 663 456 c 4
 663 523.509765625 642.748046875 645.877929688 500 830 c 5
 587 910 l 5
 767.55859375 709.192382812 812 541.462890625 812 455 c 4
EndSplineSet
EndChar

StartChar: NameMe.304
Encoding: 65562 -1 293
GlifName: N_ameM_e.302
Width: 570
Flags: HW
LayerCount: 2
Fore
SplineSet
-5 180 m 6
 30 180 l 6
 218 180 229 269 229 434 c 4
 229 570 204 939 194 1072 c 5
 331 1156 l 6
 356 1171 368 1164 368 1133 c 6
 368 433 l 6
 368 264 420 180 563 180 c 6
 576 180 l 6
 592 180 600 156 600 104 c 6
 600 79 l 6
 600 28 592 2 576 2 c 6
 566 0 l 6
 434 0 354 49 285 148 c 5
 216 49 157 0 27 0 c 6
 -5 0 l 6
 -42 0 -60 26 -60 77 c 6
 -60 102 l 6
 -60 154 -42 180 -5 180 c 6
EndSplineSet
EndChar

StartChar: NameMe.303
Encoding: 65563 -1 294
GlifName: N_ameM_e.303
Width: 526
Flags: HW
AnchorPoint: "Anchor-10" 225 1386 basechar 0
AnchorPoint: "Anchor-7" 211 -260 basechar 0
LayerCount: 2
Fore
SplineSet
-5 180 m 6
 17 180 l 6
 175 180 237 215 237 367 c 4
 237 586 237 647 182 1206 c 5
 314 1286 l 6
 341 1302 354 1296 356 1266 c 4
 364 1107 381 617 381 467 c 4
 381 137 333 0 11 0 c 6
 -5 0 l 6
 -42 0 -60 26 -60 77 c 6
 -60 102 l 6
 -60 154 -42 180 -5 180 c 6
EndSplineSet
EndChar

StartChar: uniFDFC
Encoding: 65020 65020 296
GlifName: uniF_D_F_C_
Width: 2485
Flags: HW
LayerCount: 2
Fore
SplineSet
2230.80957031 634.01953125 m 17
 2320.11035156 502.419921875 2361.46972656 377.400390625 2361.46972656 245.799804688 c 0
 2361.46972656 -218.559570312 1903.69042969 -368.01953125 1835.0703125 -368.01953125 c 0
 1820.03027344 -368.01953125 1803.11035156 -357.6796875 1789.00976562 -340.759765625 c 2
 1752.34960938 -294.700195312 l 2
 1737.30957031 -274.01953125 1721.33007812 -247.700195312 1749.53027344 -240.1796875 c 0
 2026.83007812 -164.040039062 2220.46972656 -9.8798828125 2220.46972656 203.5 c 0
 2220.46972656 289.040039062 2184.75 382.099609375 2112.37011719 484.559570312 c 1
 2230.80957031 634.01953125 l 17
1770.39550781 198.604492188 m 1
 1903 66 l 1
 1770.39550781 -66.6044921875 l 1
 1637.79101562 66 l 1
 1770.39550781 198.604492188 l 1
1478.43457031 198.604492188 m 1
 1611.0390625 66 l 1
 1478.43457031 -66.6044921875 l 1
 1345.83007812 66 l 1
 1478.43457031 198.604492188 l 1
1253 804 m 0
 1253 1045 1243 1204 1225 1282 c 1
 1357 1375 l 2
 1376 1388 1389 1377 1390 1341 c 0
 1396 1180 1396 903 1396 738 c 0
 1396 571 1434 521 1596 521 c 2
 1647 521 l 2
 1746 521 1813 548 1813 620 c 0
 1813 678 1790 762 1754 851 c 1
 1855 966 l 2
 1881 995 1898 977 1912 933 c 0
 1940 838 1954 753 1954 679 c 0
 1954 460 1837 341 1628 341 c 2
 1544 341 l 2
 1290 341 1253 527 1253 804 c 0
1030 342 m 0
 1030 -31 921 -216 576 -216 c 0
 293 -216 111 -61 111 218 c 0
 111 334 132 438 174 531 c 1
 274 498 l 1
 254 433 244 356 244 267 c 0
 244 71 379 -39 579 -39 c 0
 786 -39 891 44 891 211 c 0
 891 452 858 1064 823 1279 c 1
 945 1368 l 2
 974 1389 992 1380 994 1333 c 0
 1009 1003 1030 531 1030 342 c 0
EndSplineSet
EndChar

StartChar: NameMe.306
Encoding: 65564 -1 297
GlifName: N_ameM_e.65564
Width: 511
Flags: HW
LayerCount: 2
Fore
SplineSet
288 552 m 0
 288 263 302 180 488 180 c 2
 517 180 l 2
 533 180 541 154 541 102 c 2
 541 77 l 2
 541 26 533 0 517 0 c 2
 483 0 l 2
 168 0 140 230 140 583 c 4
 140 854 128 988 110 1169 c 5
 242 1256 l 6
 260 1268 270 1258 272 1227 c 4
 283 1080 288 818 288 552 c 0
EndSplineSet
EndChar

StartChar: NameMe.65567
Encoding: 65565 -1 298
GlifName: N_ameM_e.65565
Width: 678
Flags: HW
LayerCount: 2
Fore
SplineSet
107 -35 m 5
 147 -55 194 -64 248 -64 c 4
 424 -64 484 16 484 37 c 4
 484 56 450 72 351 101 c 4
 309 113 289 139 289 180 c 4
 289 299 410 445 549 445 c 4
 574 445 599 441 626 433 c 5
 623 407 616 368 604 317 c 5
 589 319 575 319 559 319 c 4
 481 319 411 271 385 213 c 5
 514 170 l 6
 553 157 574 126 574 77 c 4
 574 -85 418 -175 248 -175 c 4
 180 -175 120 -164 68 -143 c 5
 107 -35 l 5
EndSplineSet
EndChar

StartChar: uni060D
Encoding: 1549 1549 299
Width: 828
VWidth: 4036
Flags: HW
LayerCount: 2
Fore
SplineSet
754 1414 m 1
 198 -211 l 1
 55 -168 l 1
 611 1457 l 1
 754 1414 l 1
EndSplineSet
EndChar

StartChar: NameMe.65541
Encoding: 65541 -1 300
Width: 576
Flags: HW
AnchorPoint: "Anchor-10" 323 1302 basechar 0
AnchorPoint: "Anchor-7" 351 -260 basechar 0
LayerCount: 2
Fore
SplineSet
-5 0 m 2
 -42 0 -60 26 -60 77 c 2
 -60 102 l 2
 -60 154 -42 180 -5 180 c 2
 118 180 l 2
 282 180 323 225 323 336 c 4
 323 396 299 482 251 616 c 5
 362 744 l 6
 372 756 384 747 397 719 c 4
 449 612 475 507 475 384 c 4
 475 141 350 0 121 0 c 2
 -5 0 l 2
EndSplineSet
EndChar

StartChar: NameMe.65542
Encoding: 65542 -1 301
Width: 688
Flags: HW
AnchorPoint: "Anchor-10" 392 1159 basechar 0
AnchorPoint: "Anchor-7" 351 -219 basechar 0
LayerCount: 2
Fore
SplineSet
-5 0 m 6
 -42 0 -60 26 -60 77 c 6
 -60 102 l 6
 -60 154 -42 180 -5 180 c 6
 105 180 l 6
 244 180 319 231 328 334 c 6
 347 540 l 5
 462 540 l 5
 482 333 l 6
 492 231 543 180 674 180 c 6
 694 180 l 6
 710 180 718 154 718 102 c 6
 718 77 l 6
 718 26 710 0 694 0 c 6
 676 0 l 6
 536 0 459 43 404 130 c 5
 341 43 243 0 110 0 c 6
 -5 0 l 6
EndSplineSet
EndChar

StartChar: uniFBFD.compact
Encoding: 65575 -1 321
Width: 1351
Flags: HW
AnchorPoint: "Anchor-7" 698.902 -698.086 basechar 0
AnchorPoint: "Anchor-10" 681.6 653.22 basechar 0
LayerCount: 2
Fore
SplineSet
672 -359 m 0
 1051 -359 1163 -195 1163 -143 c 0
 1163 -45 1024 -6 878 6 c 0
 830 10 826 22 833 45 c 2
 876 180 l 1
 1357 180 l 2
 1373 180 1381 154 1381 102 c 2
 1381 77 l 2
 1381 26 1373 0 1357 0 c 2
 1251 0 l 5
 1292 -29 1312 -73 1312 -144 c 0
 1312 -278 1124 -539 667 -539 c 0
 331 -539 107 -365 107 -35 c 0
 107 101 140 241 205 385 c 1
 315 352 l 1
 277 227 258 114 258 13 c 0
 258 -235 396 -359 672 -359 c 0
EndSplineSet
EndChar

StartChar: uniFD3E
Encoding: 64830 64830 326
Width: 1466
Flags: HW
LayerCount: 2
Fore
SplineSet
701 658 m 4
 701 615 738 578 783 578 c 4
 829 578 865 615 865 663 c 4
 865 706 825 742 782 742 c 4
 734 742 701 701 701 658 c 4
723 187 m 0
 768 -15 868 -179 1022 -302 c 1
 937 -144 882 21 855 189 c 0
 852 209 857 224 871 238 c 2
 912 280 l 2
 923 291 937 297 953 297 c 2
 1143 297 l 1
 1143 1027 l 1
 953 1027 l 2
 937 1027 923 1033 912 1044 c 2
 868 1089 l 2
 854 1102 849 1119 852 1138 c 0
 884 1339 945 1522 1035 1687 c 1
 868 1557 760 1371 713 1128 c 0
 711 1116 705 1106 697 1098 c 2
 643 1044 l 2
 632 1033 619 1027 603 1027 c 2
 412 1027 l 1
 412 837 l 2
 412 821 407 808 396 797 c 2
 261 662 l 1
 396 527 l 2
 407 516 412 503 412 487 c 2
 412 297 l 1
 603 297 l 2
 619 297 632 291 643 280 c 2
 708 215 l 2
 716 207 721 197 723 187 c 0
962 654 m 4
 962 556 875 474 777 474 c 4
 672 474 592 559 592 665 c 4
 592 763 679 845 777 845 c 4
 882 845 962 760 962 654 c 4
1267 1802 m 1
 1120 1668 1021 1449 969 1148 c 1
 976 1141 l 1
 1200 1141 l 2
 1238 1141 1257 1118 1257 1084 c 2
 1257 240 l 2
 1256 202 1237 183 1200 183 c 2
 976 183 l 1
 972 179 l 1
 1026 -109 1125 -307 1264 -422 c 0
 1305 -456 1275 -489 1213 -522 c 1
 898 -429 699 -206 616 145 c 1
 579 183 l 1
 354 183 l 2
 328 183 298 206 298 240 c 2
 298 463 l 1
 140 622 l 2
 129 633 123 648 123 663 c 0
 123 677 128 690 140 702 c 2
 298 861 l 1
 298 1084 l 2
 298 1119 332 1141 355 1141 c 2
 579 1141 l 1
 604 1166 l 1
 682 1557 886 1801 1213 1898 c 1
 1257 1915 1283 1862 1267 1802 c 1
EndSplineSet
EndChar

StartChar: uniFD3F
Encoding: 64831 64831 327
Width: 1466
Flags: HW
LayerCount: 2
Fore
SplineSet
199 1802 m 1
 183 1862 209 1915 253 1898 c 1
 580 1801 784 1557 862 1166 c 1
 887 1141 l 1
 1111 1141 l 2
 1134 1141 1168 1119 1168 1084 c 2
 1168 861 l 1
 1326 702 l 2
 1338 690 1343 677 1343 663 c 0
 1343 648 1337 633 1326 622 c 2
 1168 463 l 1
 1168 240 l 2
 1168 206 1138 183 1112 183 c 2
 887 183 l 1
 850 145 l 1
 767 -206 568 -429 253 -522 c 1
 191 -489 161 -456 202 -422 c 0
 341 -307 440 -109 494 179 c 1
 490 183 l 1
 266 183 l 2
 229 183 210 202 209 240 c 2
 209 1084 l 2
 209 1118 228 1141 266 1141 c 2
 490 1141 l 1
 497 1148 l 1
 445 1449 346 1668 199 1802 c 1
504 654 m 4
 504 760 584 845 689 845 c 4
 787 845 874 763 874 665 c 4
 874 559 794 474 689 474 c 4
 591 474 504 556 504 654 c 4
743 187 m 0
 745 197 750 207 758 215 c 2
 823 280 l 2
 834 291 847 297 863 297 c 2
 1054 297 l 1
 1054 487 l 2
 1054 503 1059 516 1070 527 c 2
 1205 662 l 1
 1070 797 l 2
 1059 808 1054 821 1054 837 c 2
 1054 1027 l 1
 863 1027 l 2
 847 1027 834 1033 823 1044 c 2
 769 1098 l 2
 761 1106 755 1116 753 1128 c 0
 706 1371 598 1557 431 1687 c 1
 521 1522 582 1339 614 1138 c 0
 617 1119 612 1102 598 1089 c 2
 554 1044 l 2
 543 1033 529 1027 513 1027 c 2
 323 1027 l 1
 323 297 l 1
 513 297 l 2
 529 297 543 291 554 280 c 2
 595 238 l 2
 609 224 614 209 611 189 c 0
 584 21 529 -144 444 -302 c 1
 598 -179 698 -15 743 187 c 0
773 658 m 4
 773 701 740 742 692 742 c 4
 649 742 609 706 609 663 c 4
 609 615 645 578 691 578 c 4
 736 578 773 615 773 658 c 4
EndSplineSet
EndChar
